<?xml version="1.0" encoding="utf-8"?>
<!-- Generator: Adobe Illustrator 19.0.0, SVG Export Plug-In . SVG Version: 6.00 Build 0)  -->
<svg xmlns="http://www.w3.org/2000/svg" xmlns:xlink="http://www.w3.org/1999/xlink" version="1.1" id="Layer_1" x="0px" y="0px" viewBox="0 0 1400 980" style="enable-background:new 0 0 1400 980;" xml:space="preserve">
<style type="text/css">
	.st0{fill-rule:evenodd;clip-rule:evenodd;fill:url(#SVGID_1_);}
	.st1{fill-rule:evenodd;clip-rule:evenodd;fill:url(#SVGID_2_);}
	.st2{fill-rule:evenodd;clip-rule:evenodd;fill:url(#SVGID_3_);}
	.st3{fill-rule:evenodd;clip-rule:evenodd;fill:url(#SVGID_4_);}
	.st4{fill-rule:evenodd;clip-rule:evenodd;fill:url(#SVGID_5_);}
	.st5{fill-rule:evenodd;clip-rule:evenodd;fill:url(#SVGID_6_);}
	.st6{fill-rule:evenodd;clip-rule:evenodd;fill:url(#SVGID_7_);}
	.st7{fill-rule:evenodd;clip-rule:evenodd;fill:url(#SVGID_8_);}
	.st8{fill-rule:evenodd;clip-rule:evenodd;fill:url(#SVGID_9_);}
	.st9{fill-rule:evenodd;clip-rule:evenodd;fill:url(#SVGID_10_);}
	.st10{fill-rule:evenodd;clip-rule:evenodd;fill:url(#SVGID_11_);}
	.st11{fill-rule:evenodd;clip-rule:evenodd;fill:url(#SVGID_12_);}
	.st12{fill-rule:evenodd;clip-rule:evenodd;fill:url(#SVGID_13_);}
	.st13{fill-rule:evenodd;clip-rule:evenodd;fill:url(#SVGID_14_);}
	.st14{fill-rule:evenodd;clip-rule:evenodd;fill:url(#SVGID_15_);}
	.st15{fill-rule:evenodd;clip-rule:evenodd;fill:url(#SVGID_16_);}
	.st16{fill-rule:evenodd;clip-rule:evenodd;fill:url(#SVGID_17_);}
	.st17{fill-rule:evenodd;clip-rule:evenodd;fill:url(#SVGID_18_);}
	.st18{fill-rule:evenodd;clip-rule:evenodd;fill:#C23F00;}
	.st19{fill-rule:evenodd;clip-rule:evenodd;fill:#FF6D00;}
	.st20{fill-rule:evenodd;clip-rule:evenodd;fill:#195B00;}
	.st21{fill-rule:evenodd;clip-rule:evenodd;fill:#59C10B;}
	.st22{fill-rule:evenodd;clip-rule:evenodd;fill:url(#SVGID_19_);}
	.st23{fill-rule:evenodd;clip-rule:evenodd;fill:url(#SVGID_20_);}
	.st24{fill-rule:evenodd;clip-rule:evenodd;fill:url(#SVGID_21_);}
	.st25{fill-rule:evenodd;clip-rule:evenodd;fill:url(#SVGID_22_);}
	.st26{fill-rule:evenodd;clip-rule:evenodd;fill:url(#SVGID_23_);}
	.st27{fill-rule:evenodd;clip-rule:evenodd;fill:url(#SVGID_24_);}
	.st28{fill-rule:evenodd;clip-rule:evenodd;fill:url(#SVGID_25_);}
	.st29{fill-rule:evenodd;clip-rule:evenodd;fill:url(#SVGID_26_);}
	.st30{fill-rule:evenodd;clip-rule:evenodd;fill:url(#SVGID_27_);}
	.st31{fill-rule:evenodd;clip-rule:evenodd;fill:url(#SVGID_28_);}
	.st32{fill-rule:evenodd;clip-rule:evenodd;fill:url(#SVGID_29_);}
	.st33{fill-rule:evenodd;clip-rule:evenodd;fill:url(#SVGID_30_);}
	.st34{fill-rule:evenodd;clip-rule:evenodd;fill:url(#SVGID_31_);}
	.st35{fill-rule:evenodd;clip-rule:evenodd;fill:url(#SVGID_32_);}
	.st36{fill-rule:evenodd;clip-rule:evenodd;fill:url(#SVGID_33_);}
	.st37{fill-rule:evenodd;clip-rule:evenodd;fill:url(#SVGID_34_);}
	.st38{fill-rule:evenodd;clip-rule:evenodd;fill:url(#SVGID_35_);}
	.st39{fill-rule:evenodd;clip-rule:evenodd;fill:url(#SVGID_36_);}
	.st40{fill-rule:evenodd;clip-rule:evenodd;fill:url(#SVGID_37_);}
	.st41{fill-rule:evenodd;clip-rule:evenodd;fill:url(#SVGID_38_);}
	.st42{fill-rule:evenodd;clip-rule:evenodd;fill:url(#SVGID_39_);}
	.st43{fill-rule:evenodd;clip-rule:evenodd;fill:url(#SVGID_40_);}
	.st44{fill-rule:evenodd;clip-rule:evenodd;fill:url(#SVGID_41_);}
	.st45{fill-rule:evenodd;clip-rule:evenodd;fill:url(#SVGID_42_);}
	.st46{fill-rule:evenodd;clip-rule:evenodd;fill:url(#SVGID_43_);}
	.st47{fill-rule:evenodd;clip-rule:evenodd;fill:url(#SVGID_44_);}
	.st48{fill-rule:evenodd;clip-rule:evenodd;fill:url(#SVGID_45_);}
	.st49{fill-rule:evenodd;clip-rule:evenodd;fill:url(#SVGID_46_);}
	.st50{fill-rule:evenodd;clip-rule:evenodd;fill:url(#SVGID_47_);}
	.st51{fill-rule:evenodd;clip-rule:evenodd;fill:url(#SVGID_48_);}
	.st52{fill-rule:evenodd;clip-rule:evenodd;fill:url(#SVGID_49_);}
	.st53{fill-rule:evenodd;clip-rule:evenodd;fill:url(#SVGID_50_);}
	.st54{fill-rule:evenodd;clip-rule:evenodd;fill:url(#SVGID_51_);}
	.st55{fill-rule:evenodd;clip-rule:evenodd;fill:url(#SVGID_52_);}
	.st56{fill-rule:evenodd;clip-rule:evenodd;fill:url(#SVGID_53_);}
	.st57{fill-rule:evenodd;clip-rule:evenodd;fill:url(#SVGID_54_);}
	.st58{fill-rule:evenodd;clip-rule:evenodd;fill:url(#SVGID_55_);}
	.st59{fill-rule:evenodd;clip-rule:evenodd;fill:url(#SVGID_56_);}
	.st60{fill-rule:evenodd;clip-rule:evenodd;fill:url(#SVGID_57_);}
	.st61{fill-rule:evenodd;clip-rule:evenodd;fill:url(#SVGID_58_);}
	.st62{fill-rule:evenodd;clip-rule:evenodd;fill:url(#SVGID_59_);}
	.st63{fill-rule:evenodd;clip-rule:evenodd;fill:url(#SVGID_60_);}
	.st64{fill-rule:evenodd;clip-rule:evenodd;fill:url(#SVGID_61_);}
	.st65{fill-rule:evenodd;clip-rule:evenodd;fill:url(#SVGID_62_);}
	.st66{fill:transparent;}
	.st67{fill-rule:evenodd;clip-rule:evenodd;fill:transparent;}
</style>
<g>
	<g>
		<g>
			<linearGradient id="SVGID_1_" gradientUnits="userSpaceOnUse" x1="632.8298" y1="130.5132" x2="770.5687" y2="270.0728">
				<stop offset="0" style="stop-color:#FFFFFF"/>
				<stop offset="0.2153" style="stop-color:#FCFCFC"/>
				<stop offset="0.3508" style="stop-color:#F4F4F4"/>
				<stop offset="0.4643" style="stop-color:#E5E5E5"/>
				<stop offset="0.5657" style="stop-color:#D0D0D0"/>
				<stop offset="0.659" style="stop-color:#B6B6B6"/>
				<stop offset="0.7464" style="stop-color:#949494"/>
				<stop offset="0.8292" style="stop-color:#6D6D6D"/>
				<stop offset="0.9083" style="stop-color:#404040"/>
				<stop offset="0.982" style="stop-color:#0D0D0D"/>
				<stop offset="1" style="stop-color:#000000"/>
			</linearGradient>
			<path class="st0" d="M753.9,204.5c0,68-48.1,123-48.1,123s-48.1-55.1-48.1-123c0-67.9,48.1-123,48.1-123S753.9,136.5,753.9,204.5     z"/>
			
				<linearGradient id="SVGID_2_" gradientUnits="userSpaceOnUse" x1="33.5539" y1="199.2101" x2="171.2963" y2="338.7733" gradientTransform="matrix(0.9397 -0.342 0.342 0.9397 413.4527 -0.4188)">
				<stop offset="0" style="stop-color:#FFFFFF"/>
				<stop offset="0.2153" style="stop-color:#FCFCFC"/>
				<stop offset="0.3508" style="stop-color:#F4F4F4"/>
				<stop offset="0.4643" style="stop-color:#E5E5E5"/>
				<stop offset="0.5657" style="stop-color:#D0D0D0"/>
				<stop offset="0.659" style="stop-color:#B6B6B6"/>
				<stop offset="0.7464" style="stop-color:#949494"/>
				<stop offset="0.8292" style="stop-color:#6D6D6D"/>
				<stop offset="0.9083" style="stop-color:#404040"/>
				<stop offset="0.982" style="stop-color:#0D0D0D"/>
				<stop offset="1" style="stop-color:#000000"/>
			</linearGradient>
			<path class="st1" d="M652.2,203.4c23.2,63.9-3.1,132.1-3.1,132.1s-64.1-35.3-87.3-99.2c-23.2-63.8,3.2-132.1,3.2-132.1     S629,139.5,652.2,203.4z"/>
			
				<linearGradient id="SVGID_3_" gradientUnits="userSpaceOnUse" x1="-553.5795" y1="59.5345" x2="-415.8375" y2="199.0973" gradientTransform="matrix(0.766 -0.6428 0.6428 0.766 801.7131 -143.0935)">
				<stop offset="0" style="stop-color:#FFFFFF"/>
				<stop offset="0.2153" style="stop-color:#FCFCFC"/>
				<stop offset="0.3508" style="stop-color:#F4F4F4"/>
				<stop offset="0.4643" style="stop-color:#E5E5E5"/>
				<stop offset="0.5657" style="stop-color:#D0D0D0"/>
				<stop offset="0.659" style="stop-color:#B6B6B6"/>
				<stop offset="0.7464" style="stop-color:#949494"/>
				<stop offset="0.8292" style="stop-color:#6D6D6D"/>
				<stop offset="0.9083" style="stop-color:#404040"/>
				<stop offset="0.982" style="stop-color:#0D0D0D"/>
				<stop offset="1" style="stop-color:#000000"/>
			</linearGradient>
			<path class="st2" d="M556.3,237.1c43.7,52.1,42.2,125.2,42.2,125.2s-72.3-11.3-116-63.3c-43.7-52.1-42.2-125.2-42.2-125.2     S512.6,185.1,556.3,237.1z"/>
			
				<linearGradient id="SVGID_4_" gradientUnits="userSpaceOnUse" x1="-1056.698" y1="-273.4167" x2="-918.9508" y2="-133.8486" gradientTransform="matrix(0.5 -0.866 0.866 0.5 1118.1519 -408.7753)">
				<stop offset="0" style="stop-color:#FFFFFF"/>
				<stop offset="0.2153" style="stop-color:#FCFCFC"/>
				<stop offset="0.3508" style="stop-color:#F4F4F4"/>
				<stop offset="0.4643" style="stop-color:#E5E5E5"/>
				<stop offset="0.5657" style="stop-color:#D0D0D0"/>
				<stop offset="0.659" style="stop-color:#B6B6B6"/>
				<stop offset="0.7464" style="stop-color:#949494"/>
				<stop offset="0.8292" style="stop-color:#6D6D6D"/>
				<stop offset="0.9083" style="stop-color:#404040"/>
				<stop offset="0.982" style="stop-color:#0D0D0D"/>
				<stop offset="1" style="stop-color:#000000"/>
			</linearGradient>
			<path class="st3" d="M477.6,301.7c58.9,34,82.5,103.2,82.5,103.2s-71.8,14.1-130.6-19.8c-58.8-34-82.5-103.2-82.5-103.2     S418.8,267.7,477.6,301.7z"/>
			
				<linearGradient id="SVGID_5_" gradientUnits="userSpaceOnUse" x1="-1416.5114" y1="-757.8031" x2="-1278.7755" y2="-618.2466" gradientTransform="matrix(0.1736 -0.9848 0.9848 0.1736 1324.1608 -767.7373)">
				<stop offset="0" style="stop-color:#FFFFFF"/>
				<stop offset="0.2153" style="stop-color:#FCFCFC"/>
				<stop offset="0.3508" style="stop-color:#F4F4F4"/>
				<stop offset="0.4643" style="stop-color:#E5E5E5"/>
				<stop offset="0.5657" style="stop-color:#D0D0D0"/>
				<stop offset="0.659" style="stop-color:#B6B6B6"/>
				<stop offset="0.7464" style="stop-color:#949494"/>
				<stop offset="0.8292" style="stop-color:#6D6D6D"/>
				<stop offset="0.9083" style="stop-color:#404040"/>
				<stop offset="0.982" style="stop-color:#0D0D0D"/>
				<stop offset="1" style="stop-color:#000000"/>
			</linearGradient>
			<path class="st4" d="M425.8,389.3c66.9,11.8,112.8,68.8,112.8,68.8s-62.6,37.8-129.5,26c-66.9-11.8-112.8-68.8-112.8-68.8     S358.9,377.5,425.8,389.3z"/>
			
				<linearGradient id="SVGID_6_" gradientUnits="userSpaceOnUse" x1="-1587.8171" y1="-1336.7593" x2="-1450.0697" y2="-1197.1908" gradientTransform="matrix(-0.1736 -0.9848 0.9848 -0.1736 1396.079 -1174.3741)">
				<stop offset="0" style="stop-color:#FFFFFF"/>
				<stop offset="0.2153" style="stop-color:#FCFCFC"/>
				<stop offset="0.3508" style="stop-color:#F4F4F4"/>
				<stop offset="0.4643" style="stop-color:#E5E5E5"/>
				<stop offset="0.5657" style="stop-color:#D0D0D0"/>
				<stop offset="0.659" style="stop-color:#B6B6B6"/>
				<stop offset="0.7464" style="stop-color:#949494"/>
				<stop offset="0.8292" style="stop-color:#6D6D6D"/>
				<stop offset="0.9083" style="stop-color:#404040"/>
				<stop offset="0.982" style="stop-color:#0D0D0D"/>
				<stop offset="1" style="stop-color:#000000"/>
			</linearGradient>
			<path class="st5" d="M407.1,489.3c66.9-11.8,129.5,26,129.5,26s-45.9,57-112.8,68.8c-66.9,11.8-129.5-26-129.5-26     S340.2,501,407.1,489.3z"/>
			
				<linearGradient id="SVGID_7_" gradientUnits="userSpaceOnUse" x1="-1551.8718" y1="-1938.6702" x2="-1414.1329" y2="-1799.1106" gradientTransform="matrix(-0.5 -0.866 0.866 -0.5 1323.1523 -1581.7744)">
				<stop offset="0" style="stop-color:#FFFFFF"/>
				<stop offset="0.2153" style="stop-color:#FCFCFC"/>
				<stop offset="0.3508" style="stop-color:#F4F4F4"/>
				<stop offset="0.4643" style="stop-color:#E5E5E5"/>
				<stop offset="0.5657" style="stop-color:#D0D0D0"/>
				<stop offset="0.659" style="stop-color:#B6B6B6"/>
				<stop offset="0.7464" style="stop-color:#949494"/>
				<stop offset="0.8292" style="stop-color:#6D6D6D"/>
				<stop offset="0.9083" style="stop-color:#404040"/>
				<stop offset="0.982" style="stop-color:#0D0D0D"/>
				<stop offset="1" style="stop-color:#000000"/>
			</linearGradient>
			<path class="st6" d="M423.7,589.6c58.9-34,130.6-19.8,130.6-19.8S530.7,639,471.8,673c-58.9,34-130.6,19.8-130.6,19.8     S364.8,623.6,423.7,589.6z"/>
			
				<linearGradient id="SVGID_8_" gradientUnits="userSpaceOnUse" x1="-1311.484" y1="-2492.5466" x2="-1173.7338" y2="-2352.9753" gradientTransform="matrix(-0.766 -0.6428 0.6428 -0.766 1116.4581 -1939.5499)">
				<stop offset="0" style="stop-color:#FFFFFF"/>
				<stop offset="0.2153" style="stop-color:#FCFCFC"/>
				<stop offset="0.3508" style="stop-color:#F4F4F4"/>
				<stop offset="0.4643" style="stop-color:#E5E5E5"/>
				<stop offset="0.5657" style="stop-color:#D0D0D0"/>
				<stop offset="0.659" style="stop-color:#B6B6B6"/>
				<stop offset="0.7464" style="stop-color:#949494"/>
				<stop offset="0.8292" style="stop-color:#6D6D6D"/>
				<stop offset="0.9083" style="stop-color:#404040"/>
				<stop offset="0.982" style="stop-color:#0D0D0D"/>
				<stop offset="1" style="stop-color:#000000"/>
			</linearGradient>
			<path class="st7" d="M473.6,678.3c43.7-52.1,116-63.3,116-63.3s1.5,73.1-42.2,125.2c-43.7,52.1-116,63.3-116,63.3     S429.9,730.3,473.6,678.3z"/>
			
				<linearGradient id="SVGID_9_" gradientUnits="userSpaceOnUse" x1="-897.0204" y1="-2930.3772" x2="-759.2735" y2="-2790.8096" gradientTransform="matrix(-0.9397 -0.342 0.342 -0.9397 798.6182 -2205.0518)">
				<stop offset="0" style="stop-color:#FFFFFF"/>
				<stop offset="0.2153" style="stop-color:#FCFCFC"/>
				<stop offset="0.3508" style="stop-color:#F4F4F4"/>
				<stop offset="0.4643" style="stop-color:#E5E5E5"/>
				<stop offset="0.5657" style="stop-color:#D0D0D0"/>
				<stop offset="0.659" style="stop-color:#B6B6B6"/>
				<stop offset="0.7464" style="stop-color:#949494"/>
				<stop offset="0.8292" style="stop-color:#6D6D6D"/>
				<stop offset="0.9083" style="stop-color:#404040"/>
				<stop offset="0.982" style="stop-color:#0D0D0D"/>
				<stop offset="1" style="stop-color:#000000"/>
			</linearGradient>
			<path class="st8" d="M550.8,744.5c23.2-63.9,87.3-99.2,87.3-99.2s26.4,68.2,3.1,132.1c-23.2,63.9-87.3,99.2-87.3,99.2     S527.6,808.3,550.8,744.5z"/>
			
				<linearGradient id="SVGID_10_" gradientUnits="userSpaceOnUse" x1="-357.1656" y1="-3200.251" x2="-219.4318" y2="-3060.6965" gradientTransform="matrix(-1 0 0 -1 410 -2346.0039)">
				<stop offset="0" style="stop-color:#FFFFFF"/>
				<stop offset="0.2153" style="stop-color:#FCFCFC"/>
				<stop offset="0.3508" style="stop-color:#F4F4F4"/>
				<stop offset="0.4643" style="stop-color:#E5E5E5"/>
				<stop offset="0.5657" style="stop-color:#D0D0D0"/>
				<stop offset="0.659" style="stop-color:#B6B6B6"/>
				<stop offset="0.7464" style="stop-color:#949494"/>
				<stop offset="0.8292" style="stop-color:#6D6D6D"/>
				<stop offset="0.9083" style="stop-color:#404040"/>
				<stop offset="0.982" style="stop-color:#0D0D0D"/>
				<stop offset="1" style="stop-color:#000000"/>
			</linearGradient>
			<path class="st9" d="M646.1,780.3c0-68,48.1-123,48.1-123s48.1,55.1,48.1,123c0,68-48.1,123-48.1,123S646.1,848.3,646.1,780.3z"/>
			
				<linearGradient id="SVGID_11_" gradientUnits="userSpaceOnUse" x1="242.3689" y1="-3269.2883" x2="380.1132" y2="-3129.7231" gradientTransform="matrix(-0.9397 0.342 -0.342 -0.9397 -3.4546 -2345.5847)">
				<stop offset="0" style="stop-color:#FFFFFF"/>
				<stop offset="0.2153" style="stop-color:#FCFCFC"/>
				<stop offset="0.3508" style="stop-color:#F4F4F4"/>
				<stop offset="0.4643" style="stop-color:#E5E5E5"/>
				<stop offset="0.5657" style="stop-color:#D0D0D0"/>
				<stop offset="0.659" style="stop-color:#B6B6B6"/>
				<stop offset="0.7464" style="stop-color:#949494"/>
				<stop offset="0.8292" style="stop-color:#6D6D6D"/>
				<stop offset="0.9083" style="stop-color:#404040"/>
				<stop offset="0.982" style="stop-color:#0D0D0D"/>
				<stop offset="1" style="stop-color:#000000"/>
			</linearGradient>
			<path class="st10" d="M747.8,781.4c-23.2-63.9,3.1-132.1,3.1-132.1s64.1,35.3,87.3,99.1c23.2,63.9-3.1,132.1-3.1,132.1     S771,845.2,747.8,781.4z"/>
			
				<linearGradient id="SVGID_12_" gradientUnits="userSpaceOnUse" x1="829.1581" y1="-3128.3643" x2="966.8999" y2="-2988.8015" gradientTransform="matrix(-0.766 0.6428 -0.6428 -0.766 -391.717 -2202.9099)">
				<stop offset="0" style="stop-color:#FFFFFF"/>
				<stop offset="0.2153" style="stop-color:#FCFCFC"/>
				<stop offset="0.3508" style="stop-color:#F4F4F4"/>
				<stop offset="0.4643" style="stop-color:#E5E5E5"/>
				<stop offset="0.5657" style="stop-color:#D0D0D0"/>
				<stop offset="0.659" style="stop-color:#B6B6B6"/>
				<stop offset="0.7464" style="stop-color:#949494"/>
				<stop offset="0.8292" style="stop-color:#6D6D6D"/>
				<stop offset="0.9083" style="stop-color:#404040"/>
				<stop offset="0.982" style="stop-color:#0D0D0D"/>
				<stop offset="1" style="stop-color:#000000"/>
			</linearGradient>
			<path class="st11" d="M843.7,747.6c-43.7-52.1-42.2-125.2-42.2-125.2s72.3,11.3,116,63.3c43.7,52.1,42.2,125.2,42.2,125.2     S887.4,799.7,843.7,747.6z"/>
			
				<linearGradient id="SVGID_13_" gradientUnits="userSpaceOnUse" x1="1332.8455" y1="-2796.25" x2="1470.5929" y2="-2656.6816" gradientTransform="matrix(-0.5 0.866 -0.866 -0.5 -708.1558 -1937.2273)">
				<stop offset="0" style="stop-color:#FFFFFF"/>
				<stop offset="0.2153" style="stop-color:#FCFCFC"/>
				<stop offset="0.3508" style="stop-color:#F4F4F4"/>
				<stop offset="0.4643" style="stop-color:#E5E5E5"/>
				<stop offset="0.5657" style="stop-color:#D0D0D0"/>
				<stop offset="0.659" style="stop-color:#B6B6B6"/>
				<stop offset="0.7464" style="stop-color:#949494"/>
				<stop offset="0.8292" style="stop-color:#6D6D6D"/>
				<stop offset="0.9083" style="stop-color:#404040"/>
				<stop offset="0.982" style="stop-color:#0D0D0D"/>
				<stop offset="1" style="stop-color:#000000"/>
			</linearGradient>
			<path class="st12" d="M922.4,683.1c-58.9-34-82.5-103.2-82.5-103.2s71.8-14.1,130.6,19.8c58.8,34,82.5,103.2,82.5,103.2     S981.2,717,922.4,683.1z"/>
			
				<linearGradient id="SVGID_14_" gradientUnits="userSpaceOnUse" x1="1691.8458" y1="-2311.0288" x2="1829.5879" y2="-2171.4661" gradientTransform="matrix(-0.1736 0.9848 -0.9848 -0.1736 -914.1656 -1578.2625)">
				<stop offset="0" style="stop-color:#FFFFFF"/>
				<stop offset="0.2153" style="stop-color:#FCFCFC"/>
				<stop offset="0.3508" style="stop-color:#F4F4F4"/>
				<stop offset="0.4643" style="stop-color:#E5E5E5"/>
				<stop offset="0.5657" style="stop-color:#D0D0D0"/>
				<stop offset="0.659" style="stop-color:#B6B6B6"/>
				<stop offset="0.7464" style="stop-color:#949494"/>
				<stop offset="0.8292" style="stop-color:#6D6D6D"/>
				<stop offset="0.9083" style="stop-color:#404040"/>
				<stop offset="0.982" style="stop-color:#0D0D0D"/>
				<stop offset="1" style="stop-color:#000000"/>
			</linearGradient>
			<path class="st13" d="M974.2,595.5c-66.9-11.8-112.8-68.8-112.8-68.8s62.6-37.8,129.5-26c66.9,11.8,112.8,68.8,112.8,68.8     S1041.1,607.3,974.2,595.5z"/>
			
				<linearGradient id="SVGID_15_" gradientUnits="userSpaceOnUse" x1="1864.2942" y1="-1733.5051" x2="2002.0365" y2="-1593.942" gradientTransform="matrix(0.1736 0.9848 -0.9848 0.1736 -986.0834 -1171.6244)">
				<stop offset="0" style="stop-color:#FFFFFF"/>
				<stop offset="0.2153" style="stop-color:#FCFCFC"/>
				<stop offset="0.3508" style="stop-color:#F4F4F4"/>
				<stop offset="0.4643" style="stop-color:#E5E5E5"/>
				<stop offset="0.5657" style="stop-color:#D0D0D0"/>
				<stop offset="0.659" style="stop-color:#B6B6B6"/>
				<stop offset="0.7464" style="stop-color:#949494"/>
				<stop offset="0.8292" style="stop-color:#6D6D6D"/>
				<stop offset="0.9083" style="stop-color:#404040"/>
				<stop offset="0.982" style="stop-color:#0D0D0D"/>
				<stop offset="1" style="stop-color:#000000"/>
			</linearGradient>
			<path class="st14" d="M992.9,495.5c-66.9,11.8-129.5-26-129.5-26s45.9-57,112.8-68.8c66.9-11.8,129.5,26,129.5,26     S1059.8,483.7,992.9,495.5z"/>
			
				<linearGradient id="SVGID_16_" gradientUnits="userSpaceOnUse" x1="1827.7073" y1="-1130.6089" x2="1965.4598" y2="-991.0353" gradientTransform="matrix(0.5 0.866 -0.866 0.5 -913.1568 -764.2232)">
				<stop offset="0" style="stop-color:#FFFFFF"/>
				<stop offset="0.2153" style="stop-color:#FCFCFC"/>
				<stop offset="0.3508" style="stop-color:#F4F4F4"/>
				<stop offset="0.4643" style="stop-color:#E5E5E5"/>
				<stop offset="0.5657" style="stop-color:#D0D0D0"/>
				<stop offset="0.659" style="stop-color:#B6B6B6"/>
				<stop offset="0.7464" style="stop-color:#949494"/>
				<stop offset="0.8292" style="stop-color:#6D6D6D"/>
				<stop offset="0.9083" style="stop-color:#404040"/>
				<stop offset="0.982" style="stop-color:#0D0D0D"/>
				<stop offset="1" style="stop-color:#000000"/>
			</linearGradient>
			<path class="st15" d="M976.3,395.1c-58.9,34-130.6,19.8-130.6,19.8s23.6-69.2,82.5-103.2c58.9-34,130.6-19.8,130.6-19.8     S1035.2,361.2,976.3,395.1z"/>
			
				<linearGradient id="SVGID_17_" gradientUnits="userSpaceOnUse" x1="1588.0121" y1="-577.4671" x2="1725.7627" y2="-437.8957" gradientTransform="matrix(0.766 0.6428 -0.6428 0.766 -706.4615 -406.4471)">
				<stop offset="0" style="stop-color:#FFFFFF"/>
				<stop offset="0.2153" style="stop-color:#FCFCFC"/>
				<stop offset="0.3508" style="stop-color:#F4F4F4"/>
				<stop offset="0.4643" style="stop-color:#E5E5E5"/>
				<stop offset="0.5657" style="stop-color:#D0D0D0"/>
				<stop offset="0.659" style="stop-color:#B6B6B6"/>
				<stop offset="0.7464" style="stop-color:#949494"/>
				<stop offset="0.8292" style="stop-color:#6D6D6D"/>
				<stop offset="0.9083" style="stop-color:#404040"/>
				<stop offset="0.982" style="stop-color:#0D0D0D"/>
				<stop offset="1" style="stop-color:#000000"/>
			</linearGradient>
			<path class="st16" d="M926.4,306.5c-43.7,52-116,63.3-116,63.3s-1.5-73.1,42.2-125.2c43.7-52,116-63.3,116-63.3     S970.1,254.4,926.4,306.5z"/>
			
				<linearGradient id="SVGID_18_" gradientUnits="userSpaceOnUse" x1="1172.4076" y1="-139.0399" x2="1310.1375" y2="0.5106" gradientTransform="matrix(0.9397 0.342 -0.342 0.9397 -388.6187 -140.9439)">
				<stop offset="0" style="stop-color:#FFFFFF"/>
				<stop offset="0.2153" style="stop-color:#FCFCFC"/>
				<stop offset="0.3508" style="stop-color:#F4F4F4"/>
				<stop offset="0.4643" style="stop-color:#E5E5E5"/>
				<stop offset="0.5657" style="stop-color:#D0D0D0"/>
				<stop offset="0.659" style="stop-color:#B6B6B6"/>
				<stop offset="0.7464" style="stop-color:#949494"/>
				<stop offset="0.8292" style="stop-color:#6D6D6D"/>
				<stop offset="0.9083" style="stop-color:#404040"/>
				<stop offset="0.982" style="stop-color:#0D0D0D"/>
				<stop offset="1" style="stop-color:#000000"/>
			</linearGradient>
			<path class="st17" d="M849.2,240.3c-23.2,63.9-87.3,99.1-87.3,99.1s-26.4-68.2-3.1-132.1c23.2-63.9,87.3-99.2,87.3-99.2     S872.4,176.4,849.2,240.3z"/>
		</g>
		<g>
			<path class="st18" d="M753.9,204.5c0,68-48.1,123-48.1,123s-48.1-55.1-48.1-123c0-67.9,48.1-123,48.1-123     S753.9,136.5,753.9,204.5z"/>
			<path class="st19" d="M652.2,203.4c23.2,63.9-3.1,132.1-3.1,132.1s-64.1-35.3-87.3-99.2c-23.2-63.8,3.2-132.1,3.2-132.1     S629,139.5,652.2,203.4z"/>
			<path class="st18" d="M556.3,237.1c43.7,52.1,42.2,125.2,42.2,125.2s-72.3-11.3-116-63.3c-43.7-52.1-42.2-125.2-42.2-125.2     S512.6,185.1,556.3,237.1z"/>
			<path class="st19" d="M477.6,301.7c58.9,34,82.5,103.2,82.5,103.2s-71.8,14.1-130.6-19.8c-58.8-34-82.5-103.2-82.5-103.2     S418.8,267.7,477.6,301.7z"/>
			<path class="st18" d="M425.8,389.3c66.9,11.8,112.8,68.8,112.8,68.8s-62.6,37.8-129.5,26c-66.9-11.8-112.8-68.8-112.8-68.8     S358.9,377.5,425.8,389.3z"/>
			<path class="st20" d="M407.1,489.3c66.9-11.8,129.5,26,129.5,26s-45.9,57-112.8,68.8c-66.9,11.8-129.5-26-129.5-26     S340.2,501,407.1,489.3z"/>
			<path class="st21" d="M423.7,589.6c58.9-34,130.6-19.8,130.6-19.8S530.7,639,471.8,673c-58.9,34-130.6,19.8-130.6,19.8     S364.8,623.6,423.7,589.6z"/>
			<path class="st20" d="M473.6,678.3c43.7-52.1,116-63.3,116-63.3s1.5,73.1-42.2,125.2c-43.7,52.1-116,63.3-116,63.3     S429.9,730.3,473.6,678.3z"/>
			<path class="st21" d="M550.8,744.5c23.2-63.9,87.3-99.2,87.3-99.2s26.4,68.2,3.1,132.1c-23.2,63.9-87.3,99.2-87.3,99.2     S527.6,808.3,550.8,744.5z"/>
			<path class="st20" d="M646.1,780.3c0-68,48.1-123,48.1-123s48.1,55.1,48.1,123c0,68-48.1,123-48.1,123S646.1,848.3,646.1,780.3z"/>
			<path class="st21" d="M747.8,781.4c-23.2-63.9,3.1-132.1,3.1-132.1s64.1,35.3,87.3,99.1c23.2,63.9-3.1,132.1-3.1,132.1     S771,845.2,747.8,781.4z"/>
			<path class="st20" d="M843.7,747.6c-43.7-52.1-42.2-125.2-42.2-125.2s72.3,11.3,116,63.3c43.7,52.1,42.2,125.2,42.2,125.2     S887.4,799.7,843.7,747.6z"/>
			<path class="st21" d="M922.4,683.1c-58.9-34-82.5-103.2-82.5-103.2s71.8-14.1,130.6,19.8c58.8,34,82.5,103.2,82.5,103.2     S981.2,717,922.4,683.1z"/>
			<path class="st20" d="M974.2,595.5c-66.9-11.8-112.8-68.8-112.8-68.8s62.6-37.8,129.5-26c66.9,11.8,112.8,68.8,112.8,68.8     S1041.1,607.3,974.2,595.5z"/>
			<path class="st18" d="M992.9,495.5c-66.9,11.8-129.5-26-129.5-26s45.9-57,112.8-68.8c66.9-11.8,129.5,26,129.5,26     S1059.8,483.7,992.9,495.5z"/>
			<path class="st19" d="M976.3,395.1c-58.9,34-130.6,19.8-130.6,19.8s23.6-69.2,82.5-103.2c58.9-34,130.6-19.8,130.6-19.8     S1035.2,361.2,976.3,395.1z"/>
			<path class="st18" d="M926.4,306.5c-43.7,52-116,63.3-116,63.3s-1.5-73.1,42.2-125.2c43.7-52,116-63.3,116-63.3     S970.1,254.4,926.4,306.5z"/>
			<path class="st19" d="M849.2,240.3c-23.2,63.9-87.3,99.1-87.3,99.1s-26.4-68.2-3.1-132.1c23.2-63.9,87.3-99.2,87.3-99.2     S872.4,176.4,849.2,240.3z"/>
		</g>
	</g>
	<g>
		<g>
			
				<linearGradient id="SVGID_19_" gradientUnits="userSpaceOnUse" x1="-138.8007" y1="57.5761" x2="-1.0653" y2="197.1322" gradientTransform="matrix(-0.9822 -0.1879 -0.1879 0.9822 708.4508 66.9466)">
				<stop offset="0" style="stop-color:#FFFFFF"/>
				<stop offset="0.2153" style="stop-color:#FCFCFC"/>
				<stop offset="0.3508" style="stop-color:#F4F4F4"/>
				<stop offset="0.4643" style="stop-color:#E5E5E5"/>
				<stop offset="0.5657" style="stop-color:#D0D0D0"/>
				<stop offset="0.659" style="stop-color:#B6B6B6"/>
				<stop offset="0.7464" style="stop-color:#949494"/>
				<stop offset="0.8292" style="stop-color:#6D6D6D"/>
				<stop offset="0.9083" style="stop-color:#404040"/>
				<stop offset="0.982" style="stop-color:#0D0D0D"/>
				<stop offset="1" style="stop-color:#000000"/>
			</linearGradient>
			<path class="st22" d="M701.1,199.5c-12.8,66.7,24.2,129.9,24.2,129.9s57.6-45.1,70.4-111.8c12.8-66.7-24.2-129.9-24.2-129.9     S713.9,132.7,701.1,199.5z"/>
			
				<linearGradient id="SVGID_20_" gradientUnits="userSpaceOnUse" x1="-666.7047" y1="-132.9561" x2="-528.9654" y2="6.604" gradientTransform="matrix(-0.8587 -0.5125 -0.5125 0.8587 302.4853 -11.4534)">
				<stop offset="0" style="stop-color:#FFFFFF"/>
				<stop offset="0.2153" style="stop-color:#FCFCFC"/>
				<stop offset="0.3508" style="stop-color:#F4F4F4"/>
				<stop offset="0.4643" style="stop-color:#E5E5E5"/>
				<stop offset="0.5657" style="stop-color:#D0D0D0"/>
				<stop offset="0.659" style="stop-color:#B6B6B6"/>
				<stop offset="0.7464" style="stop-color:#949494"/>
				<stop offset="0.8292" style="stop-color:#6D6D6D"/>
				<stop offset="0.9083" style="stop-color:#404040"/>
				<stop offset="0.982" style="stop-color:#0D0D0D"/>
				<stop offset="1" style="stop-color:#000000"/>
			</linearGradient>
			<path class="st23" d="M801.2,217.5c-34.8,58.4-21.7,130.3-21.7,130.3s69.6-22.6,104.4-81c34.8-58.3,21.7-130.3,21.7-130.3     S836,159.1,801.2,217.5z"/>
			
				<linearGradient id="SVGID_21_" gradientUnits="userSpaceOnUse" x1="-1097.8073" y1="-492.2973" x2="-960.0801" y2="-352.7496" gradientTransform="matrix(-0.6316 -0.7753 -0.7753 0.6316 -52.0923 -224.307)">
				<stop offset="0" style="stop-color:#FFFFFF"/>
				<stop offset="0.2153" style="stop-color:#FCFCFC"/>
				<stop offset="0.3508" style="stop-color:#F4F4F4"/>
				<stop offset="0.4643" style="stop-color:#E5E5E5"/>
				<stop offset="0.5657" style="stop-color:#D0D0D0"/>
				<stop offset="0.659" style="stop-color:#B6B6B6"/>
				<stop offset="0.7464" style="stop-color:#949494"/>
				<stop offset="0.8292" style="stop-color:#6D6D6D"/>
				<stop offset="0.9083" style="stop-color:#404040"/>
				<stop offset="0.982" style="stop-color:#0D0D0D"/>
				<stop offset="1" style="stop-color:#000000"/>
			</linearGradient>
			<path class="st24" d="M889.1,268.7c-52.7,42.9-65,115-65,115s73.1,2.5,125.8-40.4c52.7-42.9,65-115,65-115     S941.8,225.8,889.1,268.7z"/>
			
				<linearGradient id="SVGID_22_" gradientUnits="userSpaceOnUse" x1="-1378.9673" y1="-977.8097" x2="-1241.225" y2="-838.2466" gradientTransform="matrix(-0.3284 -0.9445 -0.9445 0.3284 -312.5334 -544.3368)">
				<stop offset="0" style="stop-color:#FFFFFF"/>
				<stop offset="0.2153" style="stop-color:#FCFCFC"/>
				<stop offset="0.3508" style="stop-color:#F4F4F4"/>
				<stop offset="0.4643" style="stop-color:#E5E5E5"/>
				<stop offset="0.5657" style="stop-color:#D0D0D0"/>
				<stop offset="0.659" style="stop-color:#B6B6B6"/>
				<stop offset="0.7464" style="stop-color:#949494"/>
				<stop offset="0.8292" style="stop-color:#6D6D6D"/>
				<stop offset="0.9083" style="stop-color:#404040"/>
				<stop offset="0.982" style="stop-color:#0D0D0D"/>
				<stop offset="1" style="stop-color:#000000"/>
			</linearGradient>
			<path class="st25" d="M954.2,346.9c-64.2,22.3-100.4,85.9-100.4,85.9s67.8,27.4,132,5c64.2-22.3,100.4-85.9,100.4-85.9     S1018.4,324.6,954.2,346.9z"/>
			
				<linearGradient id="SVGID_23_" gradientUnits="userSpaceOnUse" x1="-1478.5454" y1="-1530.1938" x2="-1340.818" y2="-1390.6459" gradientTransform="matrix(1.450000e-02 -0.9999 -0.9999 -1.450000e-02 -447.752 -935.8158)">
				<stop offset="0" style="stop-color:#FFFFFF"/>
				<stop offset="0.2153" style="stop-color:#FCFCFC"/>
				<stop offset="0.3508" style="stop-color:#F4F4F4"/>
				<stop offset="0.4643" style="stop-color:#E5E5E5"/>
				<stop offset="0.5657" style="stop-color:#D0D0D0"/>
				<stop offset="0.659" style="stop-color:#B6B6B6"/>
				<stop offset="0.7464" style="stop-color:#949494"/>
				<stop offset="0.8292" style="stop-color:#6D6D6D"/>
				<stop offset="0.9083" style="stop-color:#404040"/>
				<stop offset="0.982" style="stop-color:#0D0D0D"/>
				<stop offset="1" style="stop-color:#000000"/>
			</linearGradient>
			<path class="st26" d="M988.7,442.6c-68-1-123.7,46.4-123.7,46.4s54.4,48.9,122.3,49.9c67.9,1,123.7-46.4,123.7-46.4     S1056.6,443.6,988.7,442.6z"/>
			
				<linearGradient id="SVGID_24_" gradientUnits="userSpaceOnUse" x1="-1382.7169" y1="-2083.6863" x2="-1244.9878" y2="-1944.1364" gradientTransform="matrix(0.3556 -0.9347 -0.9347 -0.3556 -441.5888 -1349.5516)">
				<stop offset="0" style="stop-color:#FFFFFF"/>
				<stop offset="0.2153" style="stop-color:#FCFCFC"/>
				<stop offset="0.3508" style="stop-color:#F4F4F4"/>
				<stop offset="0.4643" style="stop-color:#E5E5E5"/>
				<stop offset="0.5657" style="stop-color:#D0D0D0"/>
				<stop offset="0.659" style="stop-color:#B6B6B6"/>
				<stop offset="0.7464" style="stop-color:#949494"/>
				<stop offset="0.8292" style="stop-color:#6D6D6D"/>
				<stop offset="0.9083" style="stop-color:#404040"/>
				<stop offset="0.982" style="stop-color:#0D0D0D"/>
				<stop offset="1" style="stop-color:#000000"/>
			</linearGradient>
			<path class="st27" d="M988.3,544.3c-63.5-24.2-132.1,1.2-132.1,1.2s34.4,64.6,97.9,88.7c63.5,24.2,132.1-1.2,132.1-1.2     S1051.8,568.5,988.3,544.3z"/>
			
				<linearGradient id="SVGID_25_" gradientUnits="userSpaceOnUse" x1="-1103.0898" y1="-2570.4788" x2="-965.3437" y2="-2430.9119" gradientTransform="matrix(0.6538 -0.7567 -0.7567 -0.6538 -293.9794 -1735.4863)">
				<stop offset="0" style="stop-color:#FFFFFF"/>
				<stop offset="0.2153" style="stop-color:#FCFCFC"/>
				<stop offset="0.3508" style="stop-color:#F4F4F4"/>
				<stop offset="0.4643" style="stop-color:#E5E5E5"/>
				<stop offset="0.5657" style="stop-color:#D0D0D0"/>
				<stop offset="0.659" style="stop-color:#B6B6B6"/>
				<stop offset="0.7464" style="stop-color:#949494"/>
				<stop offset="0.8292" style="stop-color:#6D6D6D"/>
				<stop offset="0.9083" style="stop-color:#404040"/>
				<stop offset="0.982" style="stop-color:#0D0D0D"/>
				<stop offset="1" style="stop-color:#000000"/>
			</linearGradient>
			<path class="st28" d="M953.1,639.8c-51.4-44.4-124.6-44-124.6-44s10.2,72.5,61.6,116.9c51.4,44.4,124.6,44,124.6,44     S1004.6,684.2,953.1,639.8z"/>
			
				<linearGradient id="SVGID_26_" gradientUnits="userSpaceOnUse" x1="-674.3748" y1="-2931.9902" x2="-536.6422" y2="-2792.437" gradientTransform="matrix(0.8732 -0.4874 -0.4874 -0.8732 -22.459 -2047.816)">
				<stop offset="0" style="stop-color:#FFFFFF"/>
				<stop offset="0.2153" style="stop-color:#FCFCFC"/>
				<stop offset="0.3508" style="stop-color:#F4F4F4"/>
				<stop offset="0.4643" style="stop-color:#E5E5E5"/>
				<stop offset="0.5657" style="stop-color:#D0D0D0"/>
				<stop offset="0.659" style="stop-color:#B6B6B6"/>
				<stop offset="0.7464" style="stop-color:#949494"/>
				<stop offset="0.8292" style="stop-color:#6D6D6D"/>
				<stop offset="0.9083" style="stop-color:#404040"/>
				<stop offset="0.982" style="stop-color:#0D0D0D"/>
				<stop offset="1" style="stop-color:#000000"/>
			</linearGradient>
			<path class="st29" d="M887.4,717.5c-33.1-59.3-102-84-102-84s-15.2,71.6,17.9,130.9c33.1,59.3,102,84,102,84     S920.6,776.8,887.4,717.5z"/>
			
				<linearGradient id="SVGID_27_" gradientUnits="userSpaceOnUse" x1="-147.021" y1="-3125.6035" x2="-9.277" y2="-2986.0386" gradientTransform="matrix(0.9872 -0.1594 -0.1594 -0.9872 338.2821 -2248.6987)">
				<stop offset="0" style="stop-color:#FFFFFF"/>
				<stop offset="0.2153" style="stop-color:#FCFCFC"/>
				<stop offset="0.3508" style="stop-color:#F4F4F4"/>
				<stop offset="0.4643" style="stop-color:#E5E5E5"/>
				<stop offset="0.5657" style="stop-color:#D0D0D0"/>
				<stop offset="0.659" style="stop-color:#B6B6B6"/>
				<stop offset="0.7464" style="stop-color:#949494"/>
				<stop offset="0.8292" style="stop-color:#6D6D6D"/>
				<stop offset="0.9083" style="stop-color:#404040"/>
				<stop offset="0.982" style="stop-color:#0D0D0D"/>
				<stop offset="1" style="stop-color:#000000"/>
			</linearGradient>
			<path class="st30" d="M799.1,768C788.3,700.9,732,654.2,732,654.2s-38.7,62.1-27.9,129.1c10.8,67.1,67.1,113.8,67.1,113.8     S810,835.1,799.1,768z"/>
			
				<linearGradient id="SVGID_28_" gradientUnits="userSpaceOnUse" x1="413.8499" y1="-3126.9346" x2="551.5857" y2="-2987.3782" gradientTransform="matrix(0.9822 0.1879 0.1879 -0.9822 747.1046 -2313.8574)">
				<stop offset="0" style="stop-color:#FFFFFF"/>
				<stop offset="0.2153" style="stop-color:#FCFCFC"/>
				<stop offset="0.3508" style="stop-color:#F4F4F4"/>
				<stop offset="0.4643" style="stop-color:#E5E5E5"/>
				<stop offset="0.5657" style="stop-color:#D0D0D0"/>
				<stop offset="0.659" style="stop-color:#B6B6B6"/>
				<stop offset="0.7464" style="stop-color:#949494"/>
				<stop offset="0.8292" style="stop-color:#6D6D6D"/>
				<stop offset="0.9083" style="stop-color:#404040"/>
				<stop offset="0.982" style="stop-color:#0D0D0D"/>
				<stop offset="1" style="stop-color:#000000"/>
			</linearGradient>
			<path class="st31" d="M698.9,785.3c12.8-66.7-24.2-129.9-24.2-129.9s-57.6,45.1-70.4,111.8c-12.8,66.7,24.2,129.9,24.2,129.9     S686.1,852.1,698.9,785.3z"/>
			
				<linearGradient id="SVGID_29_" gradientUnits="userSpaceOnUse" x1="941.7783" y1="-2936.3943" x2="1079.5134" y2="-2796.8384" gradientTransform="matrix(0.8587 0.5125 0.5125 -0.8587 1153.0742 -2235.4553)">
				<stop offset="0" style="stop-color:#FFFFFF"/>
				<stop offset="0.2153" style="stop-color:#FCFCFC"/>
				<stop offset="0.3508" style="stop-color:#F4F4F4"/>
				<stop offset="0.4643" style="stop-color:#E5E5E5"/>
				<stop offset="0.5657" style="stop-color:#D0D0D0"/>
				<stop offset="0.659" style="stop-color:#B6B6B6"/>
				<stop offset="0.7464" style="stop-color:#949494"/>
				<stop offset="0.8292" style="stop-color:#6D6D6D"/>
				<stop offset="0.9083" style="stop-color:#404040"/>
				<stop offset="0.982" style="stop-color:#0D0D0D"/>
				<stop offset="1" style="stop-color:#000000"/>
			</linearGradient>
			<path class="st32" d="M598.8,767.3c34.8-58.4,21.7-130.3,21.7-130.3s-69.6,22.7-104.4,81c-34.8,58.4-21.7,130.3-21.7,130.3     S564,825.6,598.8,767.3z"/>
			
				<linearGradient id="SVGID_30_" gradientUnits="userSpaceOnUse" x1="1372.5881" y1="-2576.4792" x2="1510.3187" y2="-2436.928" gradientTransform="matrix(0.6316 0.7753 0.7753 -0.6316 1507.653 -2022.6017)">
				<stop offset="0" style="stop-color:#FFFFFF"/>
				<stop offset="0.2153" style="stop-color:#FCFCFC"/>
				<stop offset="0.3508" style="stop-color:#F4F4F4"/>
				<stop offset="0.4643" style="stop-color:#E5E5E5"/>
				<stop offset="0.5657" style="stop-color:#D0D0D0"/>
				<stop offset="0.659" style="stop-color:#B6B6B6"/>
				<stop offset="0.7464" style="stop-color:#949494"/>
				<stop offset="0.8292" style="stop-color:#6D6D6D"/>
				<stop offset="0.9083" style="stop-color:#404040"/>
				<stop offset="0.982" style="stop-color:#0D0D0D"/>
				<stop offset="1" style="stop-color:#000000"/>
			</linearGradient>
			<path class="st33" d="M510.9,716.1c52.7-42.9,65-115,65-115s-73.1-2.5-125.8,40.4c-52.7,42.9-65,115-65,115     S458.2,759,510.9,716.1z"/>
			
				<linearGradient id="SVGID_31_" gradientUnits="userSpaceOnUse" x1="1655.311" y1="-2091.6497" x2="1793.0638" y2="-1952.0759" gradientTransform="matrix(0.3284 0.9445 0.9445 -0.3284 1768.094 -1702.5692)">
				<stop offset="0" style="stop-color:#FFFFFF"/>
				<stop offset="0.2153" style="stop-color:#FCFCFC"/>
				<stop offset="0.3508" style="stop-color:#F4F4F4"/>
				<stop offset="0.4643" style="stop-color:#E5E5E5"/>
				<stop offset="0.5657" style="stop-color:#D0D0D0"/>
				<stop offset="0.659" style="stop-color:#B6B6B6"/>
				<stop offset="0.7464" style="stop-color:#949494"/>
				<stop offset="0.8292" style="stop-color:#6D6D6D"/>
				<stop offset="0.9083" style="stop-color:#404040"/>
				<stop offset="0.982" style="stop-color:#0D0D0D"/>
				<stop offset="1" style="stop-color:#000000"/>
			</linearGradient>
			<path class="st34" d="M445.8,637.9C510,615.6,546.2,552,546.2,552s-67.8-27.4-132-5.1c-64.2,22.3-100.4,85.9-100.4,85.9     S381.6,660.2,445.8,637.9z"/>
			
				<linearGradient id="SVGID_32_" gradientUnits="userSpaceOnUse" x1="1753.5576" y1="-1538.8965" x2="1891.2994" y2="-1399.3339" gradientTransform="matrix(-1.450000e-02 0.9999 0.9999 1.450000e-02 1903.3129 -1311.0897)">
				<stop offset="0" style="stop-color:#FFFFFF"/>
				<stop offset="0.2153" style="stop-color:#FCFCFC"/>
				<stop offset="0.3508" style="stop-color:#F4F4F4"/>
				<stop offset="0.4643" style="stop-color:#E5E5E5"/>
				<stop offset="0.5657" style="stop-color:#D0D0D0"/>
				<stop offset="0.659" style="stop-color:#B6B6B6"/>
				<stop offset="0.7464" style="stop-color:#949494"/>
				<stop offset="0.8292" style="stop-color:#6D6D6D"/>
				<stop offset="0.9083" style="stop-color:#404040"/>
				<stop offset="0.982" style="stop-color:#0D0D0D"/>
				<stop offset="1" style="stop-color:#000000"/>
			</linearGradient>
			<path class="st35" d="M411.3,542.2c68,1,123.7-46.3,123.7-46.3s-54.4-48.9-122.3-49.9c-67.9-1-123.7,46.3-123.7,46.3     S343.4,541.2,411.3,542.2z"/>
			
				<linearGradient id="SVGID_33_" gradientUnits="userSpaceOnUse" x1="1657.3298" y1="-986.5588" x2="1795.0597" y2="-847.0084" gradientTransform="matrix(-0.3556 0.9347 0.9347 0.3556 1897.1483 -897.3513)">
				<stop offset="0" style="stop-color:#FFFFFF"/>
				<stop offset="0.2153" style="stop-color:#FCFCFC"/>
				<stop offset="0.3508" style="stop-color:#F4F4F4"/>
				<stop offset="0.4643" style="stop-color:#E5E5E5"/>
				<stop offset="0.5657" style="stop-color:#D0D0D0"/>
				<stop offset="0.659" style="stop-color:#B6B6B6"/>
				<stop offset="0.7464" style="stop-color:#949494"/>
				<stop offset="0.8292" style="stop-color:#6D6D6D"/>
				<stop offset="0.9083" style="stop-color:#404040"/>
				<stop offset="0.982" style="stop-color:#0D0D0D"/>
				<stop offset="1" style="stop-color:#000000"/>
			</linearGradient>
			<path class="st36" d="M411.7,440.4c63.5,24.2,132.1-1.2,132.1-1.2s-34.4-64.6-97.9-88.7c-63.5-24.2-132.1,1.3-132.1,1.3     S348.2,416.3,411.7,440.4z"/>
			
				<linearGradient id="SVGID_34_" gradientUnits="userSpaceOnUse" x1="1378.5188" y1="-499.7545" x2="1516.2501" y2="-360.2026" gradientTransform="matrix(-0.6538 0.7567 0.7567 0.6538 1749.5385 -511.4163)">
				<stop offset="0" style="stop-color:#FFFFFF"/>
				<stop offset="0.2153" style="stop-color:#FCFCFC"/>
				<stop offset="0.3508" style="stop-color:#F4F4F4"/>
				<stop offset="0.4643" style="stop-color:#E5E5E5"/>
				<stop offset="0.5657" style="stop-color:#D0D0D0"/>
				<stop offset="0.659" style="stop-color:#B6B6B6"/>
				<stop offset="0.7464" style="stop-color:#949494"/>
				<stop offset="0.8292" style="stop-color:#6D6D6D"/>
				<stop offset="0.9083" style="stop-color:#404040"/>
				<stop offset="0.982" style="stop-color:#0D0D0D"/>
				<stop offset="1" style="stop-color:#000000"/>
			</linearGradient>
			<path class="st37" d="M446.9,345c51.4,44.4,124.6,44,124.6,44s-10.2-72.4-61.6-116.9c-51.4-44.4-124.6-44-124.6-44     S395.5,300.5,446.9,345z"/>
			
				<linearGradient id="SVGID_35_" gradientUnits="userSpaceOnUse" x1="949.1913" y1="-137.2869" x2="1086.9172" y2="2.2597" gradientTransform="matrix(-0.8732 0.4874 0.4874 0.8732 1478.0176 -199.0863)">
				<stop offset="0" style="stop-color:#FFFFFF"/>
				<stop offset="0.2153" style="stop-color:#FCFCFC"/>
				<stop offset="0.3508" style="stop-color:#F4F4F4"/>
				<stop offset="0.4643" style="stop-color:#E5E5E5"/>
				<stop offset="0.5657" style="stop-color:#D0D0D0"/>
				<stop offset="0.659" style="stop-color:#B6B6B6"/>
				<stop offset="0.7464" style="stop-color:#949494"/>
				<stop offset="0.8292" style="stop-color:#6D6D6D"/>
				<stop offset="0.9083" style="stop-color:#404040"/>
				<stop offset="0.982" style="stop-color:#0D0D0D"/>
				<stop offset="1" style="stop-color:#000000"/>
			</linearGradient>
			<path class="st38" d="M512.6,267.3c33.1,59.3,102,84,102,84s15.2-71.6-17.9-130.9c-33.1-59.3-102-84-102-84     S479.4,207.9,512.6,267.3z"/>
			
				<linearGradient id="SVGID_36_" gradientUnits="userSpaceOnUse" x1="422.9634" y1="55.9245" x2="560.7175" y2="195.4995" gradientTransform="matrix(-0.9872 0.1594 0.1594 0.9872 1117.2738 1.798)">
				<stop offset="0" style="stop-color:#FFFFFF"/>
				<stop offset="0.2153" style="stop-color:#FCFCFC"/>
				<stop offset="0.3508" style="stop-color:#F4F4F4"/>
				<stop offset="0.4643" style="stop-color:#E5E5E5"/>
				<stop offset="0.5657" style="stop-color:#D0D0D0"/>
				<stop offset="0.659" style="stop-color:#B6B6B6"/>
				<stop offset="0.7464" style="stop-color:#949494"/>
				<stop offset="0.8292" style="stop-color:#6D6D6D"/>
				<stop offset="0.9083" style="stop-color:#404040"/>
				<stop offset="0.982" style="stop-color:#0D0D0D"/>
				<stop offset="1" style="stop-color:#000000"/>
			</linearGradient>
			<path class="st39" d="M600.8,216.7c10.8,67.1,67.1,113.8,67.1,113.8s38.7-62.1,27.9-129.2c-10.8-67.1-67.1-113.8-67.1-113.8     S590,149.7,600.8,216.7z"/>
		</g>
		<g>
			<path class="st18" d="M701.1,199.5c-12.8,66.7,24.2,129.9,24.2,129.9s57.6-45.1,70.4-111.8c12.8-66.7-24.2-129.9-24.2-129.9     S713.9,132.7,701.1,199.5z"/>
			<path class="st19" d="M801.2,217.5c-34.8,58.4-21.7,130.3-21.7,130.3s69.6-22.6,104.4-81c34.8-58.3,21.7-130.3,21.7-130.3     S836,159.1,801.2,217.5z"/>
			<path class="st18" d="M889.1,268.7c-52.7,42.9-65,115-65,115s73.1,2.5,125.8-40.4c52.7-42.9,65-115,65-115     S941.8,225.8,889.1,268.7z"/>
			<path class="st19" d="M954.2,346.9c-64.2,22.3-100.4,85.9-100.4,85.9s67.8,27.4,132,5c64.2-22.3,100.4-85.9,100.4-85.9     S1018.4,324.6,954.2,346.9z"/>
			<path class="st18" d="M988.7,442.6c-68-1-123.7,46.4-123.7,46.4s54.4,48.9,122.3,49.9c67.9,1,123.7-46.4,123.7-46.4     S1056.6,443.6,988.7,442.6z"/>
			<path class="st20" d="M988.3,544.3c-63.5-24.2-132.1,1.2-132.1,1.2s34.4,64.6,97.9,88.7c63.5,24.2,132.1-1.2,132.1-1.2     S1051.8,568.5,988.3,544.3z"/>
			<path class="st21" d="M953.1,639.8c-51.4-44.4-124.6-44-124.6-44s10.2,72.5,61.6,116.9c51.4,44.4,124.6,44,124.6,44     S1004.6,684.2,953.1,639.8z"/>
			<path class="st20" d="M887.4,717.5c-33.1-59.3-102-84-102-84s-15.2,71.6,17.9,130.9c33.1,59.3,102,84,102,84     S920.6,776.8,887.4,717.5z"/>
			<path class="st21" d="M799.1,768C788.3,700.9,732,654.2,732,654.2s-38.7,62.1-27.9,129.1c10.8,67.1,67.1,113.8,67.1,113.8     S810,835.1,799.1,768z"/>
			<path class="st20" d="M698.9,785.3c12.8-66.7-24.2-129.9-24.2-129.9s-57.6,45.1-70.4,111.8c-12.8,66.7,24.2,129.9,24.2,129.9     S686.1,852.1,698.9,785.3z"/>
			<path class="st21" d="M598.8,767.3c34.8-58.4,21.7-130.3,21.7-130.3s-69.6,22.7-104.4,81c-34.8,58.4-21.7,130.3-21.7,130.3     S564,825.6,598.8,767.3z"/>
			<path class="st20" d="M510.9,716.1c52.7-42.9,65-115,65-115s-73.1-2.5-125.8,40.4c-52.7,42.9-65,115-65,115     S458.2,759,510.9,716.1z"/>
			<path class="st21" d="M445.8,637.9C510,615.6,546.2,552,546.2,552s-67.8-27.4-132-5.1c-64.2,22.3-100.4,85.9-100.4,85.9     S381.6,660.2,445.8,637.9z"/>
			<path class="st20" d="M411.3,542.2c68,1,123.7-46.3,123.7-46.3s-54.4-48.9-122.3-49.9c-67.9-1-123.7,46.3-123.7,46.3     S343.4,541.2,411.3,542.2z"/>
			<path class="st18" d="M411.7,440.4c63.5,24.2,132.1-1.2,132.1-1.2s-34.4-64.6-97.9-88.7c-63.5-24.2-132.1,1.3-132.1,1.3     S348.2,416.3,411.7,440.4z"/>
			<path class="st19" d="M446.9,345c51.4,44.4,124.6,44,124.6,44s-10.2-72.4-61.6-116.9c-51.4-44.4-124.6-44-124.6-44     S395.5,300.5,446.9,345z"/>
			<path class="st18" d="M512.6,267.3c33.1,59.3,102,84,102,84s15.2-71.6-17.9-130.9c-33.1-59.3-102-84-102-84     S479.4,207.9,512.6,267.3z"/>
			<path class="st19" d="M600.8,216.7c10.8,67.1,67.1,113.8,67.1,113.8s38.7-62.1,27.9-129.2c-10.8-67.1-67.1-113.8-67.1-113.8     S590,149.7,600.8,216.7z"/>
		</g>
	</g>
	<g>
		<linearGradient id="SVGID_37_" gradientUnits="userSpaceOnUse" x1="445.6111" y1="737.3052" x2="992.7777" y2="210.4883">
			<stop offset="0" style="stop-color:#003D7F"/>
			<stop offset="1" style="stop-color:#003D7F"/>
		</linearGradient>
		<path class="st40" d="M700,321.4c-94.3,0-171,76.7-171,171s76.7,171,171,171c94.3,0,171-76.7,171-171S794.3,321.4,700,321.4z     M816.4,596.3c-0.5-1.2-1.2-2.2-2.1-3.2c-3.8-3.7-9.8-3.7-13.6,0c-3.7,3.7-3.7,9.8,0,13.5c0.9,0.9,2,1.6,3.2,2.1    c-5.7,5.2-11.9,9.9-18.4,14.1c-0.2-1.2-0.6-2.5-1.2-3.6c-2.6-4.6-8.5-6.1-13.1-3.5c-4.6,2.6-6.2,8.5-3.5,13.1    c0.7,1.2,1.5,2.1,2.6,2.9c-6.9,3.5-14,6.5-21.4,8.9c0.2-1.2,0.1-2.6-0.2-3.9c-1.4-5.1-6.6-8.1-11.7-6.8c-5.1,1.4-8.1,6.6-6.8,11.7    c0.4,1.3,1,2.5,1.8,3.5c-7.5,1.6-15.2,2.6-23.1,3c0.5-1.2,0.8-2.5,0.8-3.8c0-5.3-4.3-9.6-9.6-9.6c-5.3,0-9.6,4.3-9.6,9.6    c0,1.4,0.3,2.6,0.8,3.8c-7.9-0.4-15.6-1.5-23.1-3c0.8-1,1.4-2.2,1.8-3.5c1.4-5.1-1.7-10.4-6.8-11.7c-5.1-1.4-10.4,1.7-11.7,6.8    c-0.4,1.3-0.4,2.6-0.2,3.9c-7.4-2.4-14.6-5.4-21.4-8.9c1-0.8,1.9-1.7,2.5-2.9c2.6-4.6,1.1-10.4-3.5-13.1    c-4.6-2.6-10.4-1.1-13.1,3.5c-0.7,1.1-1.1,2.4-1.2,3.6c-6.5-4.3-12.6-9-18.4-14.1c1.1-0.5,2.2-1.1,3.2-2.1c3.7-3.7,3.7-9.8,0-13.6    c-3.7-3.7-9.8-3.7-13.5,0c-0.9,0.9-1.6,2-2.1,3.2c-5.1-5.8-9.9-11.9-14.1-18.4c1.2-0.2,2.5-0.6,3.6-1.2c4.6-2.7,6.2-8.5,3.5-13.1    c-2.6-4.6-8.5-6.1-13.1-3.5c-1.2,0.7-2.1,1.5-2.9,2.5c-3.5-6.9-6.5-14-8.9-21.4c1.3,0.2,2.6,0.1,3.9-0.2c5.1-1.4,8.1-6.6,6.8-11.7    c-1.4-5.1-6.6-8.1-11.7-6.8c-1.3,0.4-2.5,1-3.5,1.8c-1.6-7.5-2.6-15.2-3-23.1c1.2,0.5,2.4,0.8,3.8,0.8c5.3,0,9.6-4.3,9.6-9.6    c0-5.3-4.3-9.6-9.6-9.6c-1.4,0-2.6,0.3-3.8,0.8c0.4-7.9,1.5-15.6,3-23.1c1,0.8,2.2,1.4,3.5,1.8c5.1,1.4,10.4-1.7,11.7-6.8    c1.4-5.1-1.7-10.4-6.8-11.7c-1.3-0.3-2.6-0.4-3.9-0.2c2.4-7.4,5.4-14.6,8.9-21.5c0.8,1,1.7,1.9,2.9,2.6c4.6,2.7,10.4,1.1,13.1-3.5    c2.6-4.6,1.1-10.4-3.5-13.1c-1.2-0.7-2.4-1.1-3.6-1.2c4.3-6.5,9-12.6,14.1-18.4c0.5,1.1,1.2,2.2,2.1,3.2c3.7,3.7,9.8,3.7,13.6,0    c3.7-3.7,3.7-9.8,0-13.5c-0.9-0.9-2-1.6-3.2-2.1c5.7-5.1,11.9-9.9,18.4-14.1c0.1,1.2,0.5,2.5,1.2,3.6c2.6,4.6,8.5,6.2,13.1,3.5    c4.6-2.6,6.1-8.5,3.5-13.1c-0.7-1.2-1.5-2.1-2.5-2.9c6.9-3.5,14-6.5,21.4-8.9c-0.2,1.3-0.1,2.6,0.2,3.9c1.4,5.1,6.6,8.1,11.7,6.8    c5.1-1.4,8.1-6.6,6.8-11.7c-0.3-1.3-1-2.5-1.8-3.5c7.5-1.6,15.2-2.6,23.1-3c-0.5,1.2-0.8,2.5-0.8,3.8c0,5.3,4.3,9.6,9.6,9.6    c5.3,0,9.6-4.3,9.6-9.6c0-1.4-0.3-2.6-0.8-3.8c7.9,0.5,15.6,1.5,23.1,3c-0.8,1-1.4,2.2-1.8,3.5c-1.4,5.1,1.7,10.4,6.8,11.7    c5.1,1.4,10.4-1.7,11.8-6.8c0.3-1.3,0.4-2.6,0.2-3.9c7.4,2.4,14.6,5.4,21.4,8.9c-1,0.8-1.9,1.7-2.5,2.9    c-2.6,4.6-1.1,10.4,3.5,13.1c4.6,2.6,10.4,1.1,13.1-3.5c0.7-1.2,1.1-2.4,1.2-3.6c6.5,4.3,12.6,9,18.4,14.1    c-1.1,0.5-2.2,1.2-3.2,2.1c-3.7,3.7-3.7,9.8,0,13.5c3.8,3.7,9.8,3.8,13.5,0c0.9-0.9,1.7-2,2.1-3.1c5.1,5.8,9.9,11.9,14.1,18.3    c-1.2,0.2-2.5,0.6-3.6,1.2c-4.6,2.6-6.2,8.5-3.5,13.1c2.7,4.6,8.5,6.2,13.1,3.5c1.2-0.7,2.1-1.5,2.9-2.5c3.5,6.9,6.5,14,8.9,21.4    c-1.3-0.2-2.6-0.1-3.9,0.2c-5.1,1.4-8.1,6.6-6.8,11.7c1.4,5.1,6.6,8.2,11.7,6.8c1.3-0.3,2.5-1,3.5-1.8c1.6,7.5,2.6,15.2,3,23.1    c-1.2-0.5-2.5-0.8-3.8-0.8c-5.3,0-9.6,4.3-9.6,9.6c0,5.3,4.3,9.6,9.6,9.6c1.4,0,2.6-0.3,3.8-0.8c-0.4,7.9-1.5,15.6-3,23.1    c-1-0.8-2.2-1.4-3.5-1.8c-5.1-1.4-10.3,1.7-11.7,6.8c-1.4,5.1,1.7,10.4,6.8,11.7c1.3,0.3,2.6,0.4,3.9,0.2    c-2.4,7.4-5.4,14.6-8.9,21.4c-0.8-1-1.7-1.9-2.9-2.5c-4.6-2.6-10.4-1.1-13.1,3.5c-2.6,4.6-1.1,10.4,3.5,13.1    c1.1,0.6,2.4,1,3.6,1.2C826.3,584.4,821.5,590.5,816.4,596.3z"/>
		
			<linearGradient id="SVGID_38_" gradientUnits="userSpaceOnUse" x1="529.8493" y1="602.8429" x2="1077.0243" y2="76.0179" gradientTransform="matrix(0.9906 0.1365 -0.1291 0.9366 52.3274 -78.1907)">
			<stop offset="0" style="stop-color:#003D7F"/>
			<stop offset="1" style="stop-color:#003D7F"/>
		</linearGradient>
		<polygon class="st41" points="717,417.5 700,492.4 704,415.7 721.8,334.7   "/>
		
			<linearGradient id="SVGID_39_" gradientUnits="userSpaceOnUse" x1="339.3765" y1="745.5" x2="886.5369" y2="218.689" gradientTransform="matrix(0.9922 -0.1245 0.1177 0.9381 -36.4254 109.5634)">
			<stop offset="0" style="stop-color:#003D7F"/>
			<stop offset="1" style="stop-color:#003D7F"/>
		</linearGradient>
		<polygon class="st42" points="697.1,415.6 700,492.4 684,417.2 680.3,334.5   "/>
		
			<linearGradient id="SVGID_40_" gradientUnits="userSpaceOnUse" x1="25.562" y1="1000.1002" x2="572.7331" y2="473.2789" gradientTransform="matrix(0.9262 -0.3771 0.3565 0.8756 -73.3482 312.7401)">
			<stop offset="0" style="stop-color:#003D7F"/>
			<stop offset="1" style="stop-color:#003D7F"/>
		</linearGradient>
		<polygon class="st43" points="677.3,419 700,492.4 665.1,423.9 640.1,345   "/>
		
			<linearGradient id="SVGID_41_" gradientUnits="userSpaceOnUse" x1="-397.1988" y1="1355.3884" x2="149.9588" y2="828.5801" gradientTransform="matrix(0.797 -0.6039 0.571 0.7535 -56.8603 519.9667)">
			<stop offset="0" style="stop-color:#003D7F"/>
			<stop offset="1" style="stop-color:#003D7F"/>
		</linearGradient>
		<polygon class="st44" points="659.1,427.4 700,492.4 648.6,435.3 604,365.5   "/>
		
			<linearGradient id="SVGID_42_" gradientUnits="userSpaceOnUse" x1="-895.9177" y1="1783.3385" x2="-348.7625" y2="1256.5326" gradientTransform="matrix(0.6136 -0.7896 0.7465 0.5801 12.7458 715.7934)">
			<stop offset="0" style="stop-color:#003D7F"/>
			<stop offset="1" style="stop-color:#003D7F"/>
		</linearGradient>
		<polygon class="st45" points="643.6,440.2 700,492.4 635.6,450.6 574.4,394.7   "/>
		
			<linearGradient id="SVGID_43_" gradientUnits="userSpaceOnUse" x1="-1435.0709" y1="2253.3823" x2="-887.9127" y2="1726.5735" gradientTransform="matrix(0.3883 -0.9215 0.8712 0.3671 130.472 886.3111)">
			<stop offset="0" style="stop-color:#003D7F"/>
			<stop offset="1" style="stop-color:#003D7F"/>
		</linearGradient>
		<polygon class="st46" points="632,456.6 700,492.4 627,468.6 553.4,430.5   "/>
		
			<linearGradient id="SVGID_44_" gradientUnits="userSpaceOnUse" x1="-1980.5651" y1="2735.4944" x2="-1433.3813" y2="2208.6609" gradientTransform="matrix(0.1365 -0.9906 0.9366 0.1291 288.6267 1020.6301)">
			<stop offset="0" style="stop-color:#003D7F"/>
			<stop offset="1" style="stop-color:#003D7F"/>
		</linearGradient>
		<polygon class="st47" points="625.1,475.4 700,492.4 623.3,488.4 542.4,470.6   "/>
		
			<linearGradient id="SVGID_45_" gradientUnits="userSpaceOnUse" x1="-2494.8276" y1="3196.4932" x2="-1947.6703" y2="2669.6853" gradientTransform="matrix(-0.1245 -0.9922 0.9381 -0.1177 476.3806 1109.3834)">
			<stop offset="0" style="stop-color:#003D7F"/>
			<stop offset="1" style="stop-color:#003D7F"/>
		</linearGradient>
		<polygon class="st48" points="623.2,495.3 700,492.4 624.9,508.4 542.1,512.1   "/>
		
			<linearGradient id="SVGID_46_" gradientUnits="userSpaceOnUse" x1="-2939.459" y1="3602.5603" x2="-2392.3025" y2="3075.7532" gradientTransform="matrix(-0.3771 -0.9262 0.8756 -0.3565 679.5565 1146.3082)">
			<stop offset="0" style="stop-color:#003D7F"/>
			<stop offset="1" style="stop-color:#003D7F"/>
		</linearGradient>
		<polygon class="st49" points="626.6,515.1 700,492.4 631.6,527.3 552.6,552.3   "/>
		
			<linearGradient id="SVGID_47_" gradientUnits="userSpaceOnUse" x1="-3290.9543" y1="3931.9602" x2="-2743.8113" y2="3405.1658" gradientTransform="matrix(-0.6039 -0.797 0.7535 -0.571 886.7861 1129.8199)">
			<stop offset="0" style="stop-color:#003D7F"/>
			<stop offset="1" style="stop-color:#003D7F"/>
		</linearGradient>
		<polygon class="st50" points="635,533.3 700,492.4 642.9,543.8 573.1,588.4   "/>
		
			<linearGradient id="SVGID_48_" gradientUnits="userSpaceOnUse" x1="-3521.2102" y1="4158.4053" x2="-2974.0574" y2="3631.6018" gradientTransform="matrix(-0.7896 -0.6136 0.5801 -0.7465 1082.6128 1060.2142)">
			<stop offset="0" style="stop-color:#003D7F"/>
			<stop offset="1" style="stop-color:#003D7F"/>
		</linearGradient>
		<polygon class="st51" points="647.8,548.8 700,492.4 658.2,556.8 602.3,618   "/>
		
			<linearGradient id="SVGID_49_" gradientUnits="userSpaceOnUse" x1="-3613.0425" y1="4265.1636" x2="-3065.8762" y2="3738.3469" gradientTransform="matrix(-0.9215 -0.3883 0.3671 -0.8712 1253.1294 942.489)">
			<stop offset="0" style="stop-color:#003D7F"/>
			<stop offset="1" style="stop-color:#003D7F"/>
		</linearGradient>
		<polygon class="st52" points="664.2,560.4 700,492.4 676.3,565.4 638.1,639   "/>
		
			<linearGradient id="SVGID_50_" gradientUnits="userSpaceOnUse" x1="-3562.3511" y1="4246.4761" x2="-3015.2" y2="3719.6738" gradientTransform="matrix(-0.9906 -0.1365 0.1291 -0.9366 1387.4504 784.3352)">
			<stop offset="0" style="stop-color:#003D7F"/>
			<stop offset="1" style="stop-color:#003D7F"/>
		</linearGradient>
		<polygon class="st53" points="683,567.3 700,492.4 696,569.1 678.2,650   "/>
		
			<linearGradient id="SVGID_51_" gradientUnits="userSpaceOnUse" x1="-3373.3303" y1="4104.3594" x2="-2826.1577" y2="3577.5366" gradientTransform="matrix(-0.9922 0.1245 -0.1177 -0.9381 1476.2018 596.5812)">
			<stop offset="0" style="stop-color:#003D7F"/>
			<stop offset="1" style="stop-color:#003D7F"/>
		</linearGradient>
		<polygon class="st54" points="703,569.2 700,492.4 716,567.5 719.7,650.3   "/>
		
			<linearGradient id="SVGID_52_" gradientUnits="userSpaceOnUse" x1="-3054.0952" y1="3844.75" x2="-2506.9431" y2="3317.947" gradientTransform="matrix(-0.9262 0.3771 -0.3565 -0.8756 1513.1266 393.4044)">
			<stop offset="0" style="stop-color:#003D7F"/>
			<stop offset="1" style="stop-color:#003D7F"/>
		</linearGradient>
		<polygon class="st55" points="722.7,565.8 700,492.4 734.9,560.8 760,639.8   "/>
		
			<linearGradient id="SVGID_53_" gradientUnits="userSpaceOnUse" x1="-2634.5586" y1="3492.6023" x2="-2087.3958" y2="2965.7891" gradientTransform="matrix(-0.797 0.6039 -0.571 -0.7535 1496.6383 186.1739)">
			<stop offset="0" style="stop-color:#003D7F"/>
			<stop offset="1" style="stop-color:#003D7F"/>
		</linearGradient>
		<polygon class="st56" points="740.9,557.4 700,492.4 751.4,549.5 796.1,619.3   "/>
		
			<linearGradient id="SVGID_54_" gradientUnits="userSpaceOnUse" x1="-2138.2856" y1="3067.2051" x2="-1591.1222" y2="2540.3911" gradientTransform="matrix(-0.6136 0.7896 -0.7465 -0.5801 1427.0325 -9.6533)">
			<stop offset="0" style="stop-color:#003D7F"/>
			<stop offset="1" style="stop-color:#003D7F"/>
		</linearGradient>
		<polygon class="st57" points="756.4,544.6 700,492.4 764.4,534.2 825.6,590.1   "/>
		
			<linearGradient id="SVGID_55_" gradientUnits="userSpaceOnUse" x1="-1597.511" y1="2596.1956" x2="-1050.361" y2="2069.3945" gradientTransform="matrix(-0.3883 0.9215 -0.8712 -0.3671 1309.3073 -180.1702)">
			<stop offset="0" style="stop-color:#003D7F"/>
			<stop offset="1" style="stop-color:#003D7F"/>
		</linearGradient>
		<polygon class="st58" points="768,528.2 700,492.4 773.1,516.1 846.6,554.2   "/>
		
			<linearGradient id="SVGID_56_" gradientUnits="userSpaceOnUse" x1="-1052.0997" y1="2113.9839" x2="-504.9435" y2="1587.1768" gradientTransform="matrix(-0.1365 0.9906 -0.9366 -0.1291 1151.1516 -314.4915)">
			<stop offset="0" style="stop-color:#003D7F"/>
			<stop offset="1" style="stop-color:#003D7F"/>
		</linearGradient>
		<polygon class="st59" points="774.9,509.4 700,492.4 776.7,496.4 857.6,514.2   "/>
		
			<linearGradient id="SVGID_57_" gradientUnits="userSpaceOnUse" x1="-538.9816" y1="1653.2258" x2="8.165" y2="1126.4281" gradientTransform="matrix(0.1245 0.9922 -0.9381 0.1177 963.3976 -403.2448)">
			<stop offset="0" style="stop-color:#003D7F"/>
			<stop offset="1" style="stop-color:#003D7F"/>
		</linearGradient>
		<polygon class="st60" points="776.8,489.4 700,492.4 775.1,476.4 857.9,472.6   "/>
		
			<linearGradient id="SVGID_58_" gradientUnits="userSpaceOnUse" x1="-89.0603" y1="1242.2784" x2="458.0815" y2="715.4854" gradientTransform="matrix(0.3771 0.9262 -0.8756 0.3565 760.2199 -440.1686)">
			<stop offset="0" style="stop-color:#003D7F"/>
			<stop offset="1" style="stop-color:#003D7F"/>
		</linearGradient>
		<polygon class="st61" points="773.4,469.7 700,492.4 768.4,457.5 847.4,432.4   "/>
		
			<linearGradient id="SVGID_59_" gradientUnits="userSpaceOnUse" x1="259.3239" y1="915.9116" x2="806.4903" y2="389.0948" gradientTransform="matrix(0.6039 0.797 -0.7535 0.571 552.9913 -423.6803)">
			<stop offset="0" style="stop-color:#003D7F"/>
			<stop offset="1" style="stop-color:#003D7F"/>
		</linearGradient>
		<polygon class="st62" points="765,451.4 700,492.4 757.1,441 826.9,396.3   "/>
		
			<linearGradient id="SVGID_60_" gradientUnits="userSpaceOnUse" x1="487.0665" y1="692.0895" x2="1034.2135" y2="165.2914" gradientTransform="matrix(0.7896 0.6136 -0.5801 0.7465 357.1626 -354.0745)">
			<stop offset="0" style="stop-color:#003D7F"/>
			<stop offset="1" style="stop-color:#003D7F"/>
		</linearGradient>
		<polygon class="st63" points="752.2,436 700,492.4 741.8,428 797.7,366.8   "/>
		
			<linearGradient id="SVGID_61_" gradientUnits="userSpaceOnUse" x1="580.3535" y1="584.5202" x2="1127.5024" y2="57.7202" gradientTransform="matrix(0.9215 0.3883 -0.3671 0.8712 186.645 -236.3483)">
			<stop offset="0" style="stop-color:#003D7F"/>
			<stop offset="1" style="stop-color:#003D7F"/>
		</linearGradient>
		<polygon class="st64" points="735.8,424.4 700,492.4 723.7,419.3 761.8,345.8   "/>
		<linearGradient id="SVGID_62_" gradientUnits="userSpaceOnUse" x1="445.6198" y1="737.3046" x2="992.7726" y2="210.5009">
			<stop offset="0" style="stop-color:#003D7F"/>
			<stop offset="1" style="stop-color:#003D7F"/>
		</linearGradient>
		<path class="st65" d="M713.2,492.4c0,7.3-5.9,13.2-13.2,13.2c-7.3,0-13.2-5.9-13.2-13.2c0-7.3,5.9-13.2,13.2-13.2    C707.3,479.2,713.2,485.1,713.2,492.4z"/>
	</g>
	<g>
		<path class="st66" d="M962.2,509.5c0,1,0.1,1.5,0.1,1.7C962.1,507.6,962.2,509.6,962.2,509.5z"/>
		<polygon class="st66" points="959.5,473.5 959.6,474.2 958.8,468.9   "/>
		<path class="st66" d="M953.2,440.3c0,3.3,2.7,12,3.8,18l0.1,1l0.9,2.6C956.4,454.6,954.1,445.4,953.2,440.3z"/>
		<path class="st66" d="M950.4,421.9c-0.2,1.3-1.4-3.7,0.9,4.3c0-0.4,0-0.5-0.1-0.8C951,424.6,950.8,423.6,950.4,421.9z"/>
		<path class="st66" d="M951.2,425.3C952.1,428.8,951,422.8,951.2,425.3L951.2,425.3z"/>
		<path class="st66" d="M946.2,409.2l2,4.4c0-1.1-1.2-5.3-0.5-3.8C946,405,945.9,406.2,946.2,409.2z"/>
		<path class="st66" d="M943.6,405.4l1,2.2C944.7,407.1,944.5,406.5,943.6,405.4z"/>
		<path class="st66" d="M946.9,412.4l-2.2-4.8c0,0.8-0.5,1.1,1,2.2C945,409.6,945.8,410.4,946.9,412.4z"/>
		<path class="st66" d="M947.6,415.3c0.7,2.6,1.3,6.1-0.5,1.7C949.9,425.7,950.4,424.1,947.6,415.3z"/>
		<path class="st66" d="M951.8,438.9c0,0,0.2,0.9,0.5,1.7c0.2,0.9,0.3,1.7,0.3,1.7l0.9,2.9C953.2,443.7,952.1,438.5,951.8,438.9z"/>
		<path class="st66" d="M936.9,379.8c-0.6,0-0.7,2.4-1.2,3.1l2,3C937.2,384,936.2,380.5,936.9,379.8z"/>
		<path class="st66" d="M935.7,382.9l-3-4.5C934.5,382.9,935.3,383.5,935.7,382.9z"/>
		<path class="st66" d="M941.5,405.5c0,0,1.1,1.9,2.2,3.8c1.1,1.9,2.1,3.8,2.1,3.8s-1.2-2.3-2.4-4.6c-1.2-2.3-2.5-4.5-2.5-4.5    L941.5,405.5z"/>
		<path class="st66" d="M928.4,360.2l2.8,1.9c0,0-1.1-0.9-2.3-1.8c-1.1-0.9-2.3-1.7-2.3-1.7L928.4,360.2z"/>
		<path class="st66" d="M922,347.3c2.5,1,0.7-4.8,2.8-3.3c-2.1-3.4-4.9-5.3-7.6-7C919.4,339.3,920.9,342.5,922,347.3z"/>
		<path class="st66" d="M912.9,334.1c1.2,1.1,2.6,2,4.2,3C915.9,335.8,914.7,334.7,912.9,334.1z"/>
		<path class="st66" d="M929,369.8c0.2-0.6,0.7-2-0.3-5l-0.7,3.1C928.3,368.5,928.6,369.2,929,369.8z"/>
		<path class="st66" d="M928,368l0-0.1c-1-2.1-1.8-3.6-2.1-4.2C926.1,364.3,926.8,365.6,928,368z"/>
		<path class="st66" d="M929.2,370.3c-0.1-0.2-0.2-0.3-0.2-0.5C928.9,370.1,928.9,370.3,929.2,370.3z"/>
		<path class="st66" d="M937.1,392.1c-2-2.5-5.8-7.7-4-1.5C935,392.1,934.1,388.5,937.1,392.1z"/>
		<path class="st66" d="M928.5,374c0.1-0.1,2.2,5.4,2.2,5.4c0.3-0.4,0.5-1.7,1.5-0.5C932.2,378.9,928.7,373.9,928.5,374z"/>
		<polygon class="st66" points="926.6,371.9 928.5,374 927.6,372.1   "/>
		<path class="st66" d="M916.3,344.8c-2.3-1.4-3.9-3.6-5.7-6.2c1.4,3.3,3.1,6.4,4.9,9.2C916.3,347.6,918.3,347.9,916.3,344.8z"/>
		<path class="st66" d="M922,356.2c-0.1-0.1-0.3-0.3-0.4-0.4C921.7,356.2,921.8,356.5,922,356.2z"/>
		<polygon class="st66" points="892,312.7 891.8,313.7 892.3,313.3   "/>
		<path class="st66" d="M915.4,348.6c1,2.4,2.3,3.3,3.7,4c-1.2-1.4-2.4-3-3.6-4.8C915,347.9,914.8,348,915.4,348.6z"/>
		<path class="st66" d="M907.2,327.4c0.3,1.6,0.8,3.3,1.2,5.1C908.5,330.6,908.1,327.2,907.2,327.4z"/>
		<path class="st66" d="M921.8,354.6l0.3,0.3C922.1,353.8,921.9,354,921.8,354.6z"/>
		<path class="st66" d="M921.8,354.6c-0.9-1-1.8-1.5-2.7-2c0.9,1.2,1.8,2.3,2.6,3.2C921.7,355.4,921.7,354.9,921.8,354.6z"/>
		<path class="st66" d="M868.1,327.9c2.8-3.1,10.3-2.2,11.5,4.7c5.7,1.4,10.7-9.3,12.2-18.9c-1.2,1.2-2,2-7.6-0.3    c0.3,3.1,5.6,13.2,0.2,12.1c-3.1-2-4.1-3.2-4.4-4.6c-0.2-1.4,0.2-2.8-0.5-4.9c-0.8,5.9-11.7-0.3-15.2,7.2c0,0,1.7,0.4,3.4,0.7    c1.7,0.4,3.3,0.8,3.3,0.8C870.4,325.9,867.4,326,868.1,327.9z"/>
		<path class="st66" d="M898.5,323.2l1.8,1.6c-1.3-2.7-1.6-5.2-2-10.5c-3.6-2.2-5-1.7-6-1l7,10.2L898.5,323.2z"/>
		<path class="st66" d="M906.8,333.6c-3.2,0.5-8.1-2.5-8.4,2.7c4.6,5.1,4.9,1.9,8.3,4.3c-6.9-8.8,3.1,1.5-0.2-6.6    c1.6,1.5,2.8,3.1,3.9,4.7c-0.8-2-1.6-4.1-2.1-6.1c0,0.1,0,0.3,0,0.4l0,0l0,0c0,0.7-0.1,1-0.2,0.4c0,0-0.1-0.1-0.2-0.2    C907.6,333.4,907.2,333.5,906.8,333.6c-1.3-3.3,0.3-1.1,1.2-0.4c0.1-0.1,0.3-0.1,0.4-0.2l0-0.1c0.3-0.3-8.1-8.1-8.1-8.1    C901.4,327.1,903.5,329.3,906.8,333.6z"/>
		<path class="st66" d="M927.5,387.3c-0.1-0.4,0.1-0.4,0.1-0.5C927.1,386.4,926.8,386.2,927.5,387.3z"/>
		<path class="st66" d="M926.1,383c0.6,0.5,1.5,0.7,2.6,3c0.7,2.2-0.7,0.4-1.1,0.8c1.2,1.1,3.6,4,1.9-0.6l-0.6-0.5    c-1.6-4-2.3-10.3-1.7-9.8C926.5,378,926,379.7,926.1,383z"/>
		<path class="st66" d="M915.9,359.4c0,0-0.4-0.4-0.9-1.1c-0.5-0.7-1.2-1.6-2.1-2.3c-1.6-1.6-3.3-3.2-3.3-3.2l1.1,5.1l0.9-1    C914.3,361.3,914.7,359.5,915.9,359.4z"/>
		<path class="st66" d="M892.6,310.2l3.6-2.3c0,0-1.8-0.1-3.7,0.1c-1.9,0.2-3.9,0.3-3.9,0.3L892.6,310.2z"/>
		<polygon class="st66" points="883.8,300.9 886.6,297.9 882.8,297.2   "/>
		<path class="st66" d="M631.8,567.2l5.4-1.8C635.5,565.8,633.7,566.4,631.8,567.2z"/>
		<path class="st66" d="M631.1,557.9l-9.5,4.4C626.9,560.2,630.7,558.4,631.1,557.9z"/>
		<path class="st66" d="M545.3,218.3c-13.6-11.7-34.4-30.5-22.7-14.2l12.3,15.4C536.7,215.1,540.8,215.8,545.3,218.3z"/>
		<path class="st66" d="M501.1,466c2.4,0.1,4.9,0.3,7.4,0.4c-7.9-2.6-15.3-5-22-7.2C491,461.3,495.8,463.6,501.1,466z"/>
		<path class="st66" d="M599.5,487.1c0,0-3.9,0-7.8,0c-3.9,0.1-7.9,0.2-7.9,0.2C589.3,487.5,594.6,487.4,599.5,487.1z"/>
		<path class="st66" d="M665.1,601.2c0,0,2.9-3.7,5.8-7.3c2.9-3.7,5.7-7.4,5.7-7.4C675.9,584.3,670.6,593.4,665.1,601.2z"/>
		<path class="st66" d="M768.3,221.6c-3.3-5.6-6.3-8.8-9-10.4C763.4,219.5,765.8,229.8,768.3,221.6z"/>
		<path class="st66" d="M416.6,682.1c5-0.1,9.7-1.6,14.1-4.1C425.9,677.9,421.2,678.9,416.6,682.1z"/>
		<path class="st66" d="M747.4,207.3c0.6,1.4,1.3,2.2,2,3.3c3.1-0.9,6.3-1.6,9.8,0.6C756.2,205.1,752,200.7,747.4,207.3z"/>
		<path class="st66" d="M913.1,637c0.2-0.1,0.5-0.4,0.7-0.5C913.7,636.3,913.5,636.6,913.1,637z"/>
		<path class="st66" d="M960.4,542.7c-0.1,1.1-0.3,2.8-0.5,4.4C959.9,546.3,960.1,545,960.4,542.7z"/>
		<path class="st66" d="M846.4,260.6C848.8,262.2,847,260.3,846.4,260.6L846.4,260.6z"/>
		<path class="st66" d="M845.6,291.3c-0.8,0.3-1.6,0.9-2.3,2.1C844.2,292.2,844.9,291.6,845.6,291.3z"/>
		<path class="st66" d="M718.6,277.9c-0.1,0-0.1,0-0.2,0C719.2,280.3,719.1,279.9,718.6,277.9z"/>
		<path class="st66" d="M848.4,266.2c-0.5-1.4-1.2-2.8-2-4.1C846.7,262.9,847.3,264.2,848.4,266.2z"/>
		<path class="st66" d="M849.4,263c0.6,0.9,1.2,1.6,1.7,2.2C851.8,264.5,851.9,263.7,849.4,263z"/>
		<path class="st66" d="M843,258.3c1.4,1,2.4,2.3,3.4,3.7c-0.2-0.8-0.3-1.3-0.1-1.4C845.7,260.2,844.7,259.5,843,258.3z"/>
		<path class="st66" d="M753.4,713.1c0.2,0.3,0.4,0.5,0.6,1C755.6,709.9,754.7,710.6,753.4,713.1z"/>
		<path class="st66" d="M627.3,419.1c-0.3-0.3-0.4-0.5-0.6-0.8c-0.2-0.1-0.5-0.3-0.7-0.4L627.3,419.1z"/>
		<path class="st66" d="M637.2,434.2c-19.6-19.5-16.1-18.7-11.2-16.3c0,0-11.7-10.1-23.3-20.2c-11.8-10-23.7-20-23.7-20    s14.1,14.4,28.6,28.6C622.2,420.4,637.2,434.2,637.2,434.2z"/>
		<path class="st66" d="M643.5,584.9c0,0,3.4-3.9,6.8-7.8c3.5-3.8,7-7.6,7-7.6c25.2-17.8,16-9,36.6-29.1    c-24.9,22.3-27,21.2-28.4,19.8c-1.3-1.5-2.9-2.6-31.4,17.6c0,0,2.8-2.6,5.7-5.2c2.9-2.6,5.8-5.1,5.8-5.1c-0.4,0.9,3-1.4,2.5-0.5    c13.4-11.3,2.9-4.4-10.4,3.4c-13.2,7.9-29.4,16.9-26.2,11.4c3.9-4.8,12.6-11.2,20.2-14.4c0,0-4.1,1.3-8.3,2.6    c-4.3,1.2-8.5,2.4-8.5,2.4c0.8-1.9,12-7.5,11.1-5.8c-0.2,0.1-6.3-3.3-6.5-3.3l1.9-0.9c-10.4,4.2-27.2,9.6-34.6,11.5    c9-6.1,7.4-2.3,15.6-6.5c0,0-4.4,0.9-8.8,1.7c-4.5,0.8-8.9,1.5-8.9,1.5c8.7-4.6,17.5-7.7,23.8-9.4c6.4-1.8,10.4-2.2,9.5-0.5    c33-16.6,28.9-14.8,20.9-12.5c-7.7,2.5-19.6,5,0.4-5.3c0,0,2.3-0.2,4.5-0.4c2.2-0.2,4.4-0.5,4.4-0.5c19.5-8.4,26-11.3,30.5-13.5    c4.6-2.2,7.3-3.8,20-8.3c-6.6,2.1-22.6,7.9-38.8,14.3c-16.3,6.4-32.7,13.3-41.8,14.6c5.1-2.9,7.4-4.6-7.4-2.1    c25.5-7.9,19.3-7.6,17.6-9.3l34.3-9.1c-9.9,1.1-27.5,5.6-43.2,7.9c3-3.5,29.9-9.5,52.9-14.3c3.1-1.6-8,0.7-20.5,3.5    c-12.5,2.8-26.4,6.2-29.7,4.3c6.7-2.9,6.4-4.1,1.7-5c-4.7-0.9-14.1-1.5-24.7-3.1c12.4-3.7,22-1.3,32.2-3.1c0,0-7.1,0-14.3,0    c-7.2-0.1-14.3-0.3-14.3-0.3c0.7-0.7,9.5-0.9,13.9-1.1c-11.2-1.5-35.9,1.9-45.9-1.9c-19.8,0-5.7-2.9,8.3-5.3    c14-2.6,27.3-4.1,4.9-7.7c10.2-0.5,22,1.8,36,2.3c-14.7-3.4-20.1-5.3-26.7-7.1c-6.6-1.9-14.2-3.5-33.5-9.2c0,0,6-0.6,12-0.9    c6-0.4,11.9-0.5,11.9-0.5c-13.5-0.5-28-2.8-42.2-6.6c-14.2-3.8-28.1-9.2-40.5-14.7c-13-0.7-24.5-1-30-0.7c0,0-4.3-3.5-8.5-7.2    c-4.2-3.7-8-7.5-8-7.5c6.1-0.1,17.7,3.8,31.9,8.6c-2.9-1.3-5.7-2.6-7.9-3.7c13.8-0.7,33.3,6.1,52.3,12.4c-7.4-0.5-15-1-22.3-1.5    c20.9,6.7,44.5,12.7,65.2,16.1c-4-1.2-7.4-2.7-9.3-4c5.7,1.6,10.9,2.9,14.4,3.4c3.7,0.5-4.1-1.7-12.8-4.6c0,0,9.8,1.7,19.7,3.4    c9.8,1.8,19.6,3.6,19.6,3.6l-15.4-3.7c0,0,6.5-0.5,12.8-0.7c6.3-0.2,12.4-0.1,12.4-0.1c-9.5-3.8-20-8.2-30.5-13    c-10.4-4.7-20.8-9.8-30.4-15.2c-19.1-10.6-34.9-22.3-39.5-32.1c24.7,14.3,42.5,18.9,73.4,32.4c-16.9-5.8-13.9-2.2-7.6,2.6    c6.3,4.8,16.2,10.6,12.1,11.6c4.2-1.1,19.4,4.9,24.6,7.2c0,0-7.4-4.3-14.6-9c-7.3-4.7-14.3-9.9-14.3-9.9    c25.5,10.7,19.5,6.2,30.5,9.1c-50.3-20.4-30.9-20.7-44.3-31.9c16,8.2,32.1,17.6,27.1,19.3c18.9,6.9,4.8-1.2-9.2-10.5    c-14.3-9.1-28.2-19.2-12.2-13.2c-0.1,1.3-2.8,0.5,5,5.4c-6.4-5.1-6-7.7-2.5-7.7c3.5,0,9.8,2.6,16.1,7.3l-0.1,1.2    c2-0.8,3.5-2.4,4-4.8c0.7-2.3,0.7-5.2-0.7-9.2c-2.7-7.7-10.3-19.4-26.2-33.6c4.1,3.6,38.3,33.2,45.9,39.8c0,0-6.8-6.4-16.5-16.1    c-9.7-9.7-22.3-22.9-34.3-36.4c-24.2-27-45.3-55.5-45.3-55.5c12.3,13.2,35.2,33.3,55.7,52.9c20.6,19.6,39.1,38.5,45.4,47.9    c4.7,2.2,9.1,4.5,2-7.2c-3.9-2.8-38.3-34.1-39.3-37.9c15.8,12.1,19.8,15.4,23.5,17.9c3.6,2.6,7.1,4.4,19.6,14.6    c-2.9-2.1-13.4-13.7-22.6-24.9c-9.2-11.3-16.9-22.3-15-22.9c5,6.5,35,40.4,38.2,45.5c0,0-7.9-11.5-15.2-23.2    c-7.3-11.6-13.7-23.2-13.7-23.2c4.3,8.8,27.7,34.9,37.5,45.4c-6.7-7.5,3.8-3.8,1.8-9.4l-8.7-7.3c4.7,0.1-4.5-16.4-12.5-32.9    c-8.3-16.6-15.8-33.9-10.4-35.8c3.7,9.4,30.1,55.1,35.8,57.3c-5.6-11.4-18.9-39-28.8-65.9c-10.1-26.9-16.7-53.5-14.2-63.7    l7.8,11.4c0,0,0.6-4.2,1.5-8.5c0.8-4.2,1.9-8.1,1.9-8.1c3.3,16.4,8.8,43.1,16,69.5c7.1,26.4,16.1,52.4,21.6,67.3    c7.3,7.7,8.3,13.9,10.5,9.7c6.6,10.4,7.5,19.1,7.3,20.7c0.1,0.1,8.5,0.1,8.3-0.1c-5.8-12.2-7.5-20-8.7-27.2    c-1.1-7-1.5-13.4-5.7-23.5c0,0,0,2,0.1,5.1c0.1,3,0.3,7.1,0.8,11.4c0.8,8.5,2.3,17,2.3,17.1c-6.1-12.3-13.7-31.2-17.4-46.9    c-1.9-7.8-3-15.1-2.7-20.1c0.2-5,1.7-7.9,4.3-7.9c2.9,4.3,6.5,15.4,10,26.4c3.5,11,6.9,22,8.5,26c-2.7-9,0.1-20.5,2.7-15.1    c0,0,0.4,3.8,0.9,7.5c0.5,3.8,1,7.5,1,7.5c3.1,3.1,1.6-6.1,1.2-13.5c-0.5-7.4,0.4-12.6,5.7-2.8c1,0.3,4.2,7,6.4,11.9    c2.3,4.9,3.8,7.9,2.3,1c-8.3-24.4-31.4-107-33-127.1c0.8,0.8,6.3,6.7,11.8,13.7c5.6,6.9,11.3,15.7,13.8,21.6    c3.8,9.7,4.2,21.6,4.9,33.5c0.7,11.9,1.7,23.7,4.6,31.8c-1.1-6.2-0.7-14.3-0.4-17c2.9,4.4,2.4,19.1,6.1,14.5    c-2.7-22.4,9.1-1.7-0.7-19.5c1.8-3.9,3.2-3.1,4.7-1.8c1.5,1.3,3.1,3.1,5.8,2.1c-1.5-6.6-1.4-18.5,0.1-29.2    c1.5-10.7,4.5-20.2,7.3-23c-0.1,5.1,1.4,11.8,2.1,14.7c2.8,0.3,5.3,1,7.6,1.9c2.3,1.1,4.4,2.4,6.4,3.6c4.1,2.4,7.9,4.5,13,4.5    c0.6,4.3,4.8,9.1,2.1,16.5c1.7-3.1,3.6-8.8,6.7-9c3.9,14.4-6.9,2.1-4.6,19.6c1.4-9.9,9.1-13.6,14.5-19c1.1-14.1-9.9-3.8-14.7,2.5    c1.1-10.5,4.2-21.2,8.9-29.6c4.7-8.4,11-14.5,17.8-17c10.4-1.4,1.6,13.2,3.8,11.1c8.1,4.5,13.5-1.8,18.6-6.3    c2.5-2.3,4.9-4.3,7.3-4.5c2.4-0.2,4.8,1.7,7.3,6.4c1.1,6.3-0.5,10.8-2.5,14.9c-2,4.1-4.4,7.7-5,11.3c-4,0.5-6.1-2.1-7.9-5    c-1.8-2.7-3.2-6-5.7-6.6l4.5,6.8c-3.3,2.7-8.6,4.2-10.4,0.4c0.5,2.8,2.4,4.6,5.1,6.1c1.3,0.7,2.9,1.3,4.6,1.9    c1.7,0.8,3.4,1.5,5.3,2.2c7.3,3,15.9,5.8,20,11.9c3.2-1.8,8-2.7,7.8-6.5l-4.2-0.8c-0.5-8.2,10.9-4.7,7.6-10.3    c6.9-1.3,16.1-4.1,20.8,4.6l-2.9,8.1c1.1-2.1-1.8-7.6-4.9-6.7c2.3-0.7,3.4,3.9,5,7.3c1.6,3.5,3.6,6,7.8,2.8l-1.7-8.2    c6.6,0.2,16.9-1.6,20.6,6.3c1.6-8.3-1.6-0.5-0.6-11.6c-1.2,6-4.7,2.5-8-0.7c-3.3-3.2-6.5-6.1-6.8,1.6c1.3-13-4.7-10.8-5.8-24.6    c-1.2,2.8-0.5,6.8-5.1,1.1c-0.6,0.6-1.7,1.1-2.4,1.4c-0.1-0.2-0.2-0.3-0.3-0.5c0.1,0.2,0.1,0.4,0.1,0.6c-0.4,0.2-0.5,0.3,0.1,0.2    c0.7,2.2,0.9,4.4,0.6,6.2c-5.7,4.1-14-2-18.4-0.3c-2.5-3.6,2.9-2.6,2.6-7c0,0-1.7,0.6-3.3,1.2c-1.7,0.7-3.4,1.5-3.4,1.5    c2.5-7.1-4.2-17.7,5.5-16.6l-7.1-5.3c-2.7-7.2-8.2-13.7-13.2-12.6c-3.2-4.1-12.1,4.3-7-0.7c0,0-3.5-0.3-7-0.6    c-3.5-0.2-7-0.4-7-0.4l0.4-2.4c-6.1-4.2-13.6-2.5-20.8-3.2c-7.3-0.6-14.2-3.3-21.2-16c-4.9,1.5-9.8,3.9-17.6-1.8l-1.4-11.3    c-3.2,0.8-7.9-2.9-12.4-5.8c-4.5-2.8-8.6-4.7-9.7,1.1c-2.2-8.2-5.5-13.3-9.4-16.4c-3.9-3.1-8.4-4.2-12.9-3.9    c-9.1,0.2-18.1,4.3-25,0.7l2.8,16.9c-8.5-1.4-15.5,3.9-23.6,11.4l5,15.6c-2.3,6.8-8.2,4.3-15.4,1.1c-7.2-3.3-16-8.1-22.5-6    c-1.6-6.5,2.6-5.4,6.4-2c-7.5-8.5-13.1-10.8-17.4-9.7c-4.2,1.3-6.9,6.1-9.1,11.2c-4.7,10.5-7.1,22-21.6,11    c-0.1,7.5-3.6,6.3-8.6,3.2c0.3-0.2,0.4-0.6,0.3-1.3c-0.5,0-1,0.1-1.6,0.4c-3.3-2.3-6.9-4.9-10.4-6.9c4.1,3.5,7.5,6.2,9.7,7.3    c-2.5,1.4-5.4,5.2-6.6,11.1l-13.4-17.2c-0.2,0.4-0.5,0.5-0.7,0.9c-8.6-4.9,2.5,9.8,13.5,22.4c0,3.7,0.8,8.3,2.5,13.2    c-11.4-13.6-12.3-9.9-13.2-6.3c-1,3.6-2,7-15.7-7c4.3,8.1,1.8,13.5,1.3,20.9c-0.3,7.7,1.5,17.3,14.2,33.1    c-3.6-3.9-6.2-5.1-4.8-6.6c-6.4-0.9-13.2-1.6-8.2,9.1L501.8,279c0,0,4.9,8.7,10.1,17.3c5.3,8.7,11,17.3,11,17.3    c-17.1-9-27.4-14.4-39.5-34.6c7.2,17.4,7.9,21.5,8.4,25.6c0.7,4,1.2,7.9,11.2,23.5l-15.1-13.1c-2.5,3.8,14.7,25.4-0.2,17    c-9.2-4-16.2-3.9-22.2-1.4c-6,2.4-10.2,7.7-14.9,13.3c-9.7,11.1-17.6,24.8-41.7,29.3c30.3,10.4,22.3,10.2,12.4,10.2    c-9.7,0-21.7,0.7,1.1,10.1c-14.6-4.1-24.3-3.4-34.7-12.3c3.9,9.4-3.7,12.3-8.2,16.2c-4.5,3.7-5.3,8.5,13.6,19    c-15.3-2.6-20.6-9.2-29.8-10.3c2.8,2.1,11.4,8.2,2.1,7.3c-9.3-0.9-11.7-5.5-17.4-9.8c-2.6,16.7,43.3,28.9,86.4,39.8    c-11.1,0.7-16.2,2.3-15,4.8c1.3,2.6,8.8,6.1,22.9,10.9c-14.7-0.6-30.5,0.9-34.2-8.3c-1.5,2.1-8,8.3-9.8,15    c-1.7,6.7,1.5,13.4,19.5,15.3c-9.2,0.6-3.1,6.1,1,7.6c-2.7,9.9-6,10.8-3,20.8l6-2.7c21.7,2.2,23.9,3.9,21.7,6.3    c-2.3,2.3-9.2,5.4-6.5,9.1l-4.4,0c-15.2,9.5-11.3,11.5-8,13.1c1.7,0.8,3.2,1.6,2.1,3.5c-1.1,1.9-4.6,4.8-12.7,10.4l26.6-4.1    c28.9-2.5,20.9,1.5,8.8,8.1c-12.1,6.4-28.1,15.8-16.4,18.7c0,0,3.6-1.6,7.1-3.3c3.6-1.6,7.2-3.2,7.2-3.2c10,0.7-8.3,7.9-29.4,17    c-21.2,9-45.2,20-47.7,24.3c-4.4,2.8-8.4-0.2-12.6-1.4c-13.6,13.3-4.9,11.8,8.4,7.9c13.4-3.8,31.7-9.4,37.4-4.7    c-17.1,7.7-46.8,10.6-46.9,20.5c-6.3,4.5,10.9,6.4,25.6,8.9c14.9,2.6,26.6,5.9,13.5,18.1c11.6-8.1,23.7-15.5,36-15    c4.2,2.6-5.2,13.1-9.7,22c-4.5,8.7-4.5,15.8,17,8.3c-2.7,2.8-5.6,4.9-8.6,6.6c13.7,0.1,28.5,8,49.7-2.2    c-34.2,26.1-18.2,28.4-3.5,28.2c7.4-0.1,14.4-0.5,16.3,1.9c1.8,2.5-1.8,8.1-16.2,20.6c0,0,4.5,2.7,8.9,5.4    c4.5,2.6,8.9,5.2,8.9,5.2l-5.9,5c3,6,9.2,6.1,15.8,3.7c6.7-2.4,14.4-7.6,21.9-12.8c-1.1,5.3-7.2,9.2-10,11.8    c4.6,21.5,10.7,20,42.8-0.6l-11.7,18.9c5.5-4.3,5.7,6,9.7,15.1c1.9,4.6,4.7,9,8.7,11.2c4,2.3,9.4,2.5,16.5-1.6    c-1.3,2-3.5,5.5-6.2,7.6c7.7-3.9,12.6-1.7,16.7,2.5c4.1,4.2,7.3,10.8,11.4,15c7.8,8.9,17.5,11,31.1-20.2c0,0,4.3-3.2,8.4-6.9    c4.1-3.5,8.1-7,8.1-7c-6.8-3.4-4-10.3-0.2-17.6c3.8-7.3,8.5-14.9,7.4-20.8c3-1.3,4.8,4.3,5.2,10.2c0.4,5.9-0.6,12.3-4.4,13.3    l-0.2-3.3c-5.6,16-1.8,19.6,2.7,21.7c4.5,2.2,9.7,3,7.4,13.5c7.8-0.4,15.3,0.3,22.7,1.5c3.7,0.7,7.4,1,11.1,1.4    c3.7,0.4,7.4,0.9,11,1.3c3.7,0.4,7.4,0.8,11,1.1c3.7,0.1,7.3,0,11-0.2c7.3-0.5,14.5-1.2,21.4-3.3c0,0-1.3-4.2-2.5-8.5    c-1.2-4.3-2.4-8.7-2.4-8.7c0,0.2,9.2-1.7,9.2-1.7c2.9,3.3,5.2,12.4-1.7,14.2c2.4,4.4,5,1.1,6.8-3.5c1.8-4.6,2.9-10.5,2.7-12.4    c6.8,1.4,6.5,6.4,4.8,11.3c-1.7,4.9-4.8,9.7-2.7,9.1l5.3-3.5l-1.6-1.4c1.6-4.2,2.1-8.1,3.3-11.1c1.1-3,2.8-5.2,6.6-6.5    c5.4,1,4.6,8.2,6.6,7.9c0.2,1.1,1,1.2,3-1l11.3-4.4c0,0-1.9-2.2-3.8-4.3c-1.9-2.3-3.7-4.5-3.7-4.5c3.2-7.5,10.1-3.9,1.6-13.9    c6.3,8,16.4,3.7,25.4-1.2c4.5-2.5,8.4-6,11.8-8.2c3.3-2.3,5.9-3.8,7.4-3.5c3.1-9.2,8.1-13.5,15.1-18c-2.4,0-7.7-6.4-1.5-9.4    c3.3,7.5,7.1,7.2,10.8,5c3.8-2.2,8-5.5,13-3.7c-3.8-0.7-0.5-4.8,2.4-8.7c2.8-4,4.9-8.2-0.4-8.3c4.6-3.6,3.3,3.3,8,1.9    c2.9-7.4,9-12.2,14-18.7c5.2-6.2,11.2-12.4,14.7-20.6c-0.6-0.8-3.2,0.8-2.4-3.2c0,0,2.1-1.2,4.1-2.5c2-1.3,3.9-2.7,3.9-2.7    c0.7-1.6,0.1-2.9,0-4.3c0-1.4,0.5-2.8,2.8-4.9c-0.9,0.5-2.2,1.1-1.4-1.1c9.1-13.8,14.9-29.8,19.9-45.7c2.3-8.1,5.1-15.9,6.6-24.1    c0.9-4,1.8-8,2.7-12.1c1-4,1.1-8.2,1.8-12.2c-0.6,4.4-0.3,1.4,0.1-1.9c-0.3,2.2-0.1-0.1-0.2,0.3c0,0,0.5-3.4,1-6.8    c0.2-1.7,0.5-3.4,0.7-4.6c0.2-1.3,0.1-2.1,0.1-2.1c0-2.5,0.5-14.6,0.6-16.1l-0.2,4.3c0.2-5.8-0.4,8-0.5,7.2    c0.3,6.5-2.7,16.8-4.1,27.2c-0.5,2.2,0.2-2-0.1-0.8c-0.2,2.7-1.1,5.8-2.9,11.5l0.1-0.7c-2.5,8-3.9,13.8-6.8,19.4    c-1.3,2.8-2.7,5.7-4.3,8.9c-1.6,3.2-3.2,6.8-6,10.6l1.6-0.8c-2.1,3.4-2.9,4-4.1,5.5c-0.8,4.7,5.8-9.7,5.2-5.4    c-2.2,1.9-5.8,8-9.4,13.8c-3.6,5.8-8,10.8-10.8,11.2c-3.9,4.7,2.9-0.3-0.9,4.5l-2,0.6l0.4,2.1c-2.6,3.1-5.6,3.4-6.6,2.9    c0.8-0.6,1.7-2.1,2.4-2.9c-5.1,2.7-10,10.3-11.8,11.2c0,0,1.3-0.8,2.5-1.7c1.2-0.9,2.5-1.7,2.5-1.7c-2.7,3.1-5.6,6.2-8.9,9.1    c-3.5,2.7-7,5.5-10.5,8.3c-1.7,1.4-3.5,2.7-5.2,4.1c-1.8,1.2-3.6,2.5-5.3,3.7c-3.4,2.6-6.3,5.3-8.7,8.4l2.3,0.9    c-7.6,9.4-9.9,2.8-20.1,10.3l0.1-0.7c-0.8,3.3-3.3,5.8-6.8,6.9c1.3-3.8-9.1-3.3-7-7.8c-8.9,8.8-3.4,5.7-5.8,18.8l-4.3-4.1    c-0.5,5.2,0.5,7.7-5.1,11.3c1.5-3.2-0.4-4.7-2.4-6.6c-1.9-1.9-3.8-4.1-2.4-7.7c-4.5-2.1-7.6-2.4-9.9-1.5c-2.3,0.7-4,2.2-5.4,3.7    c-2.9,3-5.4,5.6-11.7-4.6c0.2,19,14.5,8.3,12.6,12.5c5,4.8-0.3,14-5.1,13.5c-4.4,1.2-14.9-22.9-24.5-23.1c1,0.1,0.7-1.5,1.7-1.3    c-2.5-2.7-3.9-1-5.4,0.4c-1.6,1.4-3.4,2.4-6.6-2.7c0,13.6-5.9-1.7-3.8,16.5c0,0,2.2-0.9,4.4-1.9c2.2-0.9,4.3-1.8,4.3-1.8    c-2.2,2.1-3.7,8.3-6.1,13c-2.4,4.7-5.8,8-11,2.7c0.3-4,2.4-9.1,3.8-11.9c-3.2-5.9-4.5,3.8-7.7-2.6c-0.5-9.8,2-10.5,5.2-10.6    c3.2,0,7.2,0.5,8.7-5.9c-2-4-3.9-1.3-5.5,0.2c-1.6,1.5-2.7,1.6-2.8-8.3c0,12.5-2.6,11.5-5.4,9.5c-2.9-2.3-5.8-5.9-8.4,4.3    l-0.3-12.4c-0.8,1.6-2.6,7-4.4,6.3c0,0,0.6-3.9,1.3-7.8c0.6-3.8,1.2-7.6,1.2-7.6c-2,6.1-4.5,2.3-6.7-2.5    c-2.2-4.7-4.1-11.2-6.2-8.2c4.2,2.3,4.8,6.6,4.7,11.7c-0.1,5.2-1,11.6,1.1,16.9c-12.9,14.4-6.4-38.2-17.1-38.5    c1.5-0.9,4.8,11.9,1.9,17.4c-2.1-3.9-4.3-11.4-4.4-20.3c-3.5-1.1-3.8,3.1-3.7,8.3c0.1,5.2,0.8,11.4-1.5,15.1    c0.1-20-4.7,5.3-9.8,9.9l2.9-15.9c-6.1-15.5-9.5,32.3-15.1,15.3c0,0,2.3-5.2,4.6-10.5c2.2-5.1,4.3-10.3,4.3-10.3l-5.2,3.3    l5.6-18.3c-7.2,10.8-8.1,7-9.5-1.9c-3.1,12.7-10.5,30.5-14.8,28.6c1.3-12,7.3-15.5,1.6-16.7c5.5-10.1,11.2-22.7,7.3-5.1    c2.2-5.5,4.7-9.9,6.8-15.2c1.1-7,0.3-9-1.1-9.5c-1.3-0.4-3.3,0.9-3.9,0.3c0.2,1.2,0.4,2.8-0.3,5.6c0,0-3.7,4.7-7.8,9.4    c-4,4.5-8.3,9.1-8.3,9.1c2.1-7.6,5.3-12.2,8.3-16.7c-1.9,0.7-6.5,8-9,7.7c7.5-14,14.8-29,19.4-33.1c0,0-2.8,2.5-5.6,5    c-3,2.6-6.1,5.3-6.1,5.3c2.9-6.6,7.4-20.2,10.8-24.8c1.8-6-2.7-1.1-7.8,3.5c-5,4.6-10.8,9-8,1.2c-2,2.6-4.1,4.8-6,5.8    c0.1-3.7,3.1-10.8,4.1-15c0.5-2.1,0.4-3.4-0.8-3.4c-1.2-0.1-3.6,1.3-8.3,4.9c0,0,5.3-6.9,10.6-13.8c5.5-6.8,11-13.6,11-13.6    c-2.8,1.2-10.1,9.7-17.4,18.5c-7.4,8.8-15,17.9-21.3,19.4c-10.3,3.4,19.4-22.3,25.7-30.4c-6.3,5-16.2,12.7-22.5,16    c-6.3,3.4-9,2.5,1.2-8.6C644.7,581.1,641.1,585.4,643.5,584.9z M617.8,549.3c5.5-0.9,21.7-5.4,7.2,0.7    C596.6,559.7,609.9,553.5,617.8,549.3z M554.2,466.2c8.3,3.2,3.8,3.5-6.5,2.9C545.9,467.3,547.2,466,554.2,466.2z M817.7,247.6    c-0.1,0.1-0.2,0.2-0.3,0.3C814.4,241.9,815.4,244.2,817.7,247.6z M824.7,256.6c1.3-0.6,1.6-1.7,1.7-3c-1.3,1.6-3.3,0.6-5.2-1.4    C821,254.7,821.5,256.8,824.7,256.6z M792.7,779.1l-2.3-1.8C793.6,772.7,793.1,775.8,792.7,779.1z"/>
		<path class="st66" d="M588.1,484.7c-4.5-0.5-9.5-1.4-14.5-2.2C578.1,483.8,583.3,484.7,588.1,484.7z"/>
		<path class="st66" d="M662.9,604c-0.1,0.2,0,0.2-0.1,0.4c0.9-1.2,1.6-2.2,2.3-3.1L662.9,604z"/>
		<path class="st66" d="M697.3,344.3c-1.5-1.7-2.7-4.3-3.8-7.2C694.2,341.1,695.4,344.2,697.3,344.3z"/>
		<path class="st66" d="M870,278.8l-5.3-3.1c2.3,1.9,2.3,3.9,2.9,5.8C868.3,280.1,868.6,277.4,870,278.8z"/>
		<path class="st66" d="M886.3,338.7c0.9,0.2,1.2,1.1,2.2,1.2l1.1-1.5C887.1,336.2,884.3,335.9,886.3,338.7z"/>
		<path class="st66" d="M863.3,299.5c-2.4,4.6,1.5,4.9,4.8,7c-0.2-0.2-0.4-0.3-0.5-0.5C872.2,301.5,867.9,300.1,863.3,299.5z"/>
		<path class="st66" d="M868.9,307c1,0.7,2,1.4,2.7,2.4C873.4,307.7,870.8,307.9,868.9,307z"/>
		<path class="st66" d="M836.7,259.3c1,2.9,4.5-6.9,4.3-3.7c2.6-3-1.2-3.1-4.3-1.8C833.6,255.3,831.2,257.8,836.7,259.3z"/>
		<polygon class="st66" points="856.9,314.9 859.1,309.1 854.7,312.1   "/>
		<path class="st66" d="M834.1,295.5l4.4,4.6c0.5-1.1,1.5-1.4,2.6-1.4C837.9,296.7,835,293.4,834.1,295.5z"/>
		<path class="st66" d="M841.1,298.7c1.6,1.1,3.2,2,4.7,1.6C844.8,299.8,842.9,298.7,841.1,298.7z"/>
		<polygon class="st66" points="849,312.4 848.2,310.3 844.9,307.8   "/>
		<path class="st66" d="M773.8,269.7c0,0-1.8,0.5-3.6,0.9c-1.8,0.5-3.5,1-3.5,1c-1.3,3.9,0,6.6,2.7,5.4    C771.4,274.5,774.1,273.6,773.8,269.7z"/>
		<path class="st66" d="M785.8,302.3c-1-2.2-0.5-4.5-0.6-7.9l-3.5,12.3L785.8,302.3z"/>
		<path class="st66" d="M767.9,303.3c-1.4,3.7-10.4,11.5-3,10.1C766.2,309.5,772.7,306.6,767.9,303.3z"/>
		<polygon class="st66" points="678.2,290.2 679.6,289.4 672.1,255.1   "/>
		<path class="st66" d="M663.6,414.5c7.9,5.5-14.3-24.2-4.8-16.3c-4.7-9.9-7.9-6.5-12-15.1C650.7,394.8,646.6,390.6,663.6,414.5z"/>
		<path class="st66" d="M646.8,383.1c-0.6-1.9-1.4-4.1-2.5-6.9C645.1,379.2,645.9,381.3,646.8,383.1z"/>
		<polygon class="st66" points="961.7,524.7 961.9,519.8 961.8,523   "/>
		<path class="st66" d="M962.1,515.3l0.1-1.2l0.1-2.9C962.2,512.3,962.2,514.2,962.1,515.3z"/>
		<path class="st66" d="M686.4,522.8l-8.3,2.3c-9.1,2.8-9.8,3.2-11.3,4.3c0,0,4.9-1.7,9.8-3.4C681.5,524.5,686.4,522.8,686.4,522.8z    "/>
		<path class="st66" d="M660.7,552.5l0.6-0.8c0,0-6.5,4.3-13,8.6c-6.5,4.4-12.9,8.7-12.9,8.7L660.7,552.5z"/>
		<path class="st66" d="M689.1,549.8c0.9-1.6-3.4,1.8-2.4,0C689.7,548.2,664.4,575.3,689.1,549.8z"/>
	</g>
	
</g>
</svg>
